<?xml version="1.0" encoding="UTF-8"?>
<svg width="59px" height="59px" stroke-width="0.5" viewBox="0 0 24 24" fill="none"
    xmlns="http://www.w3.org/2000/svg" color="#49525b">
    <path
        d="M18 8.4C18 6.70261 17.3679 5.07475 16.2426 3.87452C15.1174 2.67428 13.5913 2 12 2C10.4087 2 8.88258 2.67428 7.75736 3.87452C6.63214 5.07475 6 6.70261 6 8.4C6 15.8667 3 18 3 18H21C21 18 18 15.8667 18 8.4Z"
        stroke="#49525b" stroke-width="0.5" stroke-linecap="round" stroke-linejoin="round"></path>
    <path
        d="M13.73 21C13.5542 21.3031 13.3019 21.5547 12.9982 21.7295C12.6946 21.9044 12.3504 21.9965 12 21.9965C11.6496 21.9965 11.3054 21.9044 11.0018 21.7295C10.6982 21.5547 10.4458 21.3031 10.27 21"
        stroke="#49525b" stroke-width="0.5" stroke-linecap="round" stroke-linejoin="round"></path>
</svg>