<svg xmlns="http://www.w3.org/2000/svg" width="48" height="48" version="1">
 <path style="opacity:0.2" d="M 44,41 V 9 C 44,7.892 43.108,7 42,7 H 6 C 4.892,7 4,7.892 4,9 v 32 c 0,1.108 0.892,2 2,2 h 36 c 1.108,0 2,-0.892 2,-2 z"/>
 <path style="fill:#7282d9" d="M 44,40 V 8 C 44,6.892 43.108,6 42,6 H 6 C 4.892,6 4,6.892 4,8 v 32 c 0,1.108 0.892,2 2,2 h 36 c 1.108,0 2,-0.892 2,-2 z"/>
 <path style="opacity:0.2;fill:#ffffff" d="M 6,6 C 4.892,6 4,6.892 4,8 V 9 C 4,7.892 4.892,7 6,7 h 36 c 1.108,0 2,0.892 2,2 V 8 C 44,6.892 43.108,6 42,6 Z"/>
 <path style="opacity:0.2" d="m 16,18 h 13 c 1,0 1,1 1,1 v 12 c 0,1 -1,1 -1,1 H 16.003 c 0,0 -1,0 -1,-1 V 19 c 0,0 0,-1 1,-1 z m 19.997,1.5 V 31 l -6,-6 z"/>
 <path style="fill:#ffffff" d="m 16,17 h 13 c 1,0 1,1 1,1 v 12 c 0,1 -1,1 -1,1 H 16.003 c 0,0 -1,0 -1,-1 V 18 c 0,0 0,-1 1,-1 z m 19.997,1.5 V 30 l -6,-6 z"/>
</svg>
