<svg xmlns="http://www.w3.org/2000/svg" width="48" height="48" version="1.1">
 <path style="opacity:0.2" d="M 10,5 C 8.892,5 8,5.892 8,7 V 43 C 8,44.108 8.892,45 10,45 H 38 C 39.108,45 40,44.108 40,43 V 17 L 28,5 Z"/>
 <path style="fill:#4caf50" d="M 10,4 C 8.892,4 8,4.892 8,6 V 42 C 8,43.108 8.892,44 10,44 H 38 C 39.108,44 40,43.108 40,42 V 16 L 30,14 28,4 Z"/>
 <rect style="opacity:0.2" width="8" height="19" x="14" y="4"/>
 <rect style="fill:#ffffff" width="2" height="2" x="16" y="18"/>
 <path style="fill:#4b4b4b" d="m 18,18 c 3,0 3,4 4,4 v 5 c 0,0.554 -0.446,1 -1,1 h -6 c -0.554,0 -1,-0.446 -1,-1 v -5 c 1,0 1,-4 4,-4 z"/>
 <rect style="fill:#ffffff" width="2" height="2" x="18" y="16"/>
 <rect style="fill:#ffffff" width="2" height="2" x="16" y="14"/>
 <rect style="fill:#ffffff" width="2" height="2" x="18" y="12"/>
 <rect style="fill:#ffffff" width="2" height="2" x="16" y="10"/>
 <rect style="fill:#ffffff" width="2" height="2" x="18" y="8"/>
 <rect style="fill:#ffffff" width="2" height="2" x="16" y="6"/>
 <rect style="fill:#ffffff" width="2" height="2" x="18" y="4"/>
 <path style="opacity:0.2" d="M 17.734375,24 C 15.666108,24 14,25.659635 14,27.71875 v 7.5625 C 14,37.340366 15.666108,39 17.734375,39 h 0.53125 C 20.333892,39 22,37.340366 22,35.28125 v -7.5625 C 22,25.659635 20.333892,24 18.265625,24 Z M 18,32 c 1.656854,3e-6 3,1.345149 3,3.001953 C 21,36.658758 19.656854,38 18,38 16.343146,38 15,36.658758 15,35.001953 15,33.345149 16.343146,32.000003 18,32 Z"/>
 <path style="fill:#ffffff" d="M 17.734375,23 C 15.666108,23 14,24.659635 14,26.71875 v 7.5625 C 14,36.340366 15.666108,38 17.734375,38 h 0.53125 C 20.333892,38 22,36.340366 22,34.28125 v -7.5625 C 22,24.659635 20.333892,23 18.265625,23 Z M 18,31 c 1.656854,3e-6 3,1.345149 3,3.001953 C 21,35.658758 19.656854,37 18,37 16.343146,37 15,35.658758 15,34.001953 15,32.345149 16.343146,31.000003 18,31 Z"/>
 <path style="fill:#909090" d="M 17.984375,20.000122 A 1.0001,0.99544853 0 0 0 17,21.009079 v 3.981396 a 1.0001,0.99544853 0 1 0 2,0 v -3.981396 a 1.0001,0.99544853 0 0 0 -1.015625,-1.008957 z"/>
 <path style="opacity:0.2" d="M 40,17 28,5 V 15 C 28,16.108 28.892,17 30,17 Z"/>
 <path style="fill:#88cc8b" d="M 40,16 28,4 V 14 C 28,15.108 28.892,16 30,16 Z"/>
 <path style="opacity:0.2;fill:#ffffff" d="M 10 4 C 8.892 4 8 4.892 8 6 L 8 7 C 8 5.892 8.892 5 10 5 L 28 5 L 28 4 L 10 4 z"/>
</svg>
