<svg xmlns="http://www.w3.org/2000/svg" xmlns:xlink="http://www.w3.org/1999/xlink" x="0px" y="0px" width="48px" height="48px" viewBox="0 0 48 48"><g transform="translate(0, 0)"><polygon fill="#76B5B5" points="44,27 4,27 1,23 5,19 43,19 47,23 "></polygon>
<path fill="#E6E6E6" d="M41,47H7c-1.105,0-2-0.895-2-2V3c0-1.105,0.895-2,2-2l24,0l12,12v32C43,46.105,42.105,47,41,47z"></path>
<path fill="#B3B3B3" d="M31,1v10c0,1.105,0.895,2,2,2h10L31,1z"></path>
<path fill="#9BCED3" d="M45,41H3c-1.105,0-2-0.895-2-2V23h46v16C47,40.105,46.105,41,45,41z"></path>
<path fill="#FFFFFF" d="M19.496,36h-4.662v-7.853h4.662v1.702h-2.54v1.236h2.353v1.702h-2.353v1.482h2.54V36z"></path>
<path fill="#FFFFFF" d="M27.945,36H25.49l-1.53-2.455L22.445,36h-2.4l2.604-4.018L20.2,28.147h2.353l1.418,2.428l1.364-2.428h2.423
	l-2.487,4.001L27.945,36z"></path>
<path fill="#FFFFFF" d="M33.488,36h-4.662v-7.853h4.662v1.702h-2.541v1.236h2.354v1.702h-2.354v1.482h2.541V36z"></path></g></svg>