<svg xmlns="http://www.w3.org/2000/svg" width="48" height="48" version="1">
 <path style="opacity:0.2" d="M 10,5 C 8.892,5 8,5.892 8,7 v 36 c 0,1.108 0.892,2 2,2 h 28 c 1.108,0 2,-0.892 2,-2 V 17 L 29,16 28,5 Z"/>
 <path fill="#2095f2" d="m10 4c-1.108 0-2 0.892-2 2v36c0 1.108 0.892 2 2 2h28c1.108 0 2-0.892 2-2v-26l-11-1-1-11z"/>
 <path fill="#fff" style="opacity:0.2" d="m10 4c-1.108 0-2 0.892-2 2v1c0-1.108 0.892-2 2-2h18l11 11h1l-12-12z"/>
 <path style="opacity:0.2" d="m 28,5 v 10 c 0,1.1046 0.89543,2 2,2 h 10 z"/>
 <path fill="#7cc0f5" d="m28 4v10c0 1.1046 0.89543 2 2 2h10l-12-12z"/>
 <path style="opacity:0.2" d="m 24,21 c -5.522857,0 -10,4.477143 -10,10 0,5.522857 4.477143,10 10,10 5.522857,0 10,-4.477143 10,-10 0,-5.522857 -4.477143,-10 -10,-10 z m -0.935547,1.994141 c 0.108806,-0.01139 0.245686,0.0065 0.355469,0 0.01301,0.05204 -0.07708,0.238754 -0.201172,0.509765 -0.790216,1.726288 -0.8369,3.747528 -0.103516,4.828125 0.132716,0.195919 0.253907,0.38202 0.253907,0.40625 0,0.02424 -0.142858,0.05078 -0.304688,0.05078 -0.3799,1e-6 -0.740065,-0.230841 -1.474609,-0.8125 -0.326312,-0.25839 -0.749712,-0.474962 -0.914063,-0.507812 -0.258081,-0.05156 -0.326284,-0.02922 -0.660156,0.304688 -0.310635,0.310584 -0.40625,0.47934 -0.40625,0.763671 0,1.078223 1.280827,1.933145 3.660156,2.4375 3.231224,0.684838 4.026105,1.298953 4.115235,2.998047 0.111903,2.130617 -1.02133,3.736741 -3.50586,4.980469 -0.296546,0.148492 -0.484954,0.207879 -0.609375,0.255859 -0.05514,-0.0049 -0.09933,0.0049 -0.154297,0 -0.02114,-0.06587 -0.05078,-0.218244 -0.05078,-0.507812 0,-1.131635 -0.445068,-2.297836 -1.117187,-2.949219 -0.180417,-0.174873 -0.684591,-0.544709 -1.117188,-0.8125 -0.432581,-0.267775 -0.869537,-0.578221 -0.966797,-0.710937 -0.161141,-0.220234 -0.172666,-0.354868 -0.04883,-0.761719 0.22568,-0.743064 0.493412,-1.159404 1.015625,-1.628906 0.273776,-0.246141 0.548725,-0.450179 0.609375,-0.455079 0.06067,-0.0049 -0.34908,-0.129893 -0.964844,-0.255859 -0.615733,-0.12621 -1.518682,-0.390047 -1.984375,-0.558594 C 17.638669,30.260233 16.489102,29.612681 16.050781,29.144531 16.032251,29.124681 16.0161,29.11132 16,29.09375 c 0.628012,-2.501606 2.390201,-4.551008 4.726562,-5.539062 0.488855,-0.206768 0.99342,-0.348223 1.525391,-0.457032 0.264977,-0.05416 0.538902,-0.0757 0.8125,-0.103515 z m 7.625,3.8125 c 0.191025,0.118078 0.913249,1.680238 1.119141,2.441406 0.265819,0.982671 0.246579,2.682022 0,3.658203 -0.09385,0.37154 -0.21585,0.718459 -0.25586,0.761719 -0.04001,0.04326 -0.186741,-0.203394 -0.357422,-0.50586 -0.170692,-0.302419 -0.712909,-0.94574 -1.166015,-1.423828 -1.307875,-1.380072 -1.514642,-2.099756 -0.966797,-3.201172 0.276282,-0.555408 1.479111,-1.821708 1.626953,-1.730468 z"/>
 <path style="fill:#ffffff" d="m 24,20 c -5.522857,0 -10,4.477143 -10,10 0,5.522857 4.477143,10 10,10 5.522857,0 10,-4.477143 10,-10 0,-5.522857 -4.477143,-10 -10,-10 z m -0.935547,1.994141 c 0.108806,-0.01139 0.245686,0.0065 0.355469,0 0.01301,0.05204 -0.07708,0.238754 -0.201172,0.509765 -0.790216,1.726288 -0.8369,3.747528 -0.103516,4.828125 0.132716,0.195919 0.253907,0.38202 0.253907,0.40625 0,0.02424 -0.142858,0.05078 -0.304688,0.05078 -0.3799,10e-7 -0.740065,-0.230841 -1.474609,-0.8125 -0.326312,-0.25839 -0.749712,-0.474962 -0.914063,-0.507812 -0.258081,-0.05156 -0.326284,-0.02922 -0.660156,0.304688 -0.310635,0.310584 -0.40625,0.47934 -0.40625,0.763671 0,1.078223 1.280827,1.933145 3.660156,2.4375 3.231224,0.684838 4.026105,1.298953 4.115235,2.998047 0.111903,2.130617 -1.02133,3.736741 -3.50586,4.980469 -0.296546,0.148492 -0.484954,0.207879 -0.609375,0.255859 -0.05514,-0.0049 -0.09933,0.0049 -0.154297,0 -0.02114,-0.06587 -0.05078,-0.218244 -0.05078,-0.507812 0,-1.131635 -0.445068,-2.297836 -1.117187,-2.949219 -0.180417,-0.174873 -0.684591,-0.544709 -1.117188,-0.8125 -0.432581,-0.267775 -0.869537,-0.578221 -0.966797,-0.710937 -0.161141,-0.220234 -0.172666,-0.354868 -0.04883,-0.761719 0.22568,-0.743064 0.493412,-1.159404 1.015625,-1.628906 0.273776,-0.246141 0.548725,-0.450179 0.609375,-0.455079 0.06067,-0.0049 -0.34908,-0.129893 -0.964844,-0.255859 -0.615733,-0.12621 -1.518682,-0.390047 -1.984375,-0.558594 C 17.638669,29.260233 16.489102,28.612681 16.050781,28.144531 16.032251,28.124681 16.0161,28.11132 16,28.09375 c 0.628012,-2.501606 2.390201,-4.551008 4.726562,-5.539062 0.488855,-0.206768 0.99342,-0.348223 1.525391,-0.457032 0.264977,-0.05416 0.538902,-0.0757 0.8125,-0.103515 z m 7.625,3.8125 c 0.191025,0.118078 0.913249,1.680238 1.119141,2.441406 0.265819,0.982671 0.246579,2.682022 0,3.658203 -0.09385,0.37154 -0.21585,0.718459 -0.25586,0.761719 -0.04001,0.04326 -0.186741,-0.203394 -0.357422,-0.50586 -0.170692,-0.302419 -0.712909,-0.94574 -1.166015,-1.423828 -1.307875,-1.380072 -1.514642,-2.099756 -0.966797,-3.201172 0.276282,-0.555408 1.479111,-1.821708 1.626953,-1.730468 z"/>
</svg>
