<svg xmlns="http://www.w3.org/2000/svg" width="48" height="48" version="1">
 <path style="opacity:0.2" d="M 10,5 C 8.892,5 8,5.892 8,7 v 36 c 0,1.108 0.892,2 2,2 h 28 c 1.108,0 2,-0.892 2,-2 V 17 L 29,16 28,5 Z"/>
 <path fill="#ff5722" d="m10 4c-1.108 0-2 0.892-2 2v36c0 1.108 0.892 2 2 2h28c1.108 0 2-0.892 2-2v-26l-11-1-1-11z"/>
 <path style="opacity:0.2" d="m 18,26 c -2.2091,0 -4,1.7909 -4,4 0,2.2091 1.7909,4 4,4 2.2091,0 4,-1.7909 4,-4 h -4 z m 7,0 v 2 h 9 v -2 z m 0,5 v 2 h 9 v -2 z m -11,5 v 2 h 16 v -2 z"/>
 <path fill="#fff" d="m18 25c-2.2091 0-4 1.7909-4 4s1.7909 4 4 4 4-1.7909 4-4h-4zm7 0v2h9v-2zm0 5v2h9v-2zm-11 5v2h16v-2z"/>
 <path fill="#fff" opacity=".1" d="m10 4c-1.108 0-2 0.892-2 2v1c0-1.108 0.892-2 2-2h18l11 11h1l-12-12z"/>
 <path style="opacity:0.2" d="m 28,5 v 10 c 0,1.1046 0.89543,2 2,2 h 10 z"/>
 <path fill="#ff8660" d="m28 4v10c0 1.1046 0.89543 2 2 2h10l-12-12z"/>
</svg>
