<svg xmlns="http://www.w3.org/2000/svg" width="48" height="48" version="1">
 <circle fill="#e74c3c" cx="24" cy="24" r="20"/>
 <path fill="#fff" opacity=".2" d="m24 4c-11.079 0-19.998 8.92-19.998 20 0 0.16772-0.004 0.33329 0 0.5 0.2642-10.846 9.087-19.5 19.998-19.5s19.734 8.6536 19.998 19.5c0.004-0.16671 0-0.33228 0-0.5 0-11.08-8.919-20-19.998-20z"/>
 <g transform="translate(0 -1)">
  <g opacity=".2" style="enable-background:new" transform="matrix(.47947 0 0 .47947 61.887 -.91927)">
   <path d="m-86.682 70.021s-2.2303 1.2982 1.5891 1.7362c4.6278 0.52836 6.9927 0.45227 12.091-0.51144 0 0 1.3431 0.84021 3.2156 1.5679-11.433 4.8982-25.875-0.28382-16.896-2.7927z"/>
   <path d="m-88.08 63.628s-2.5019 1.8524 1.3204 2.2474c4.944 0.5104 8.8468 0.55226 15.604-0.74823 0 0 0.93244 0.94717 2.4009 1.4648-13.821 4.0426-29.214 0.31805-19.326-2.964z"/>
   <path d="m-76.304 52.781c2.8185 3.2444-0.73906 6.1616-0.73906 6.1616s7.1525-3.6917 3.8684-8.3168c-3.0684-4.3112-5.4208-6.4528 7.3147-13.839 0.000129 0-19.992 4.9918-10.444 15.994z"/>
   <path d="m-61.183 74.75s1.6511 1.3611-1.8185 2.4137c-6.5975 1.9983-27.465 2.6011-33.261 0.07996-2.082-0.90686 1.8242-2.1638 3.0532-2.4293 1.2815-0.27723 2.0132-0.22659 2.0132-0.22659-2.3172-1.6317-14.977 3.2046-6.4297 4.5917 23.308 3.7781 42.488-1.7017 36.442-4.4294z"/>
   <path d="m-85.609 57.003s-10.613 2.5215-3.7582 3.4379c2.8952 0.38742 8.6634 0.29828 14.04-0.15282 4.393-0.36869 8.8016-1.1572 8.8016-1.1572s-1.5479 0.664-2.6685 1.4288c-10.78 2.8352-31.6 1.5148-25.605-1.3838 5.0675-2.4515 9.1898-2.1729 9.1898-2.1729z"/>
   <path d="m-66.569 67.644c10.957-5.6922 5.8904-11.163 2.3541-10.426-0.86475 0.18047-1.2527 0.33678-1.2527 0.33678s0.32218-0.50472 0.93567-0.72187c6.9959-2.4584 12.375 7.2531-2.256 11.099-0.00013 0 0.1682-0.15244 0.21896-0.28808z"/>
   <path d="m-73.174 24.859s6.0668 6.0703-5.756 15.402c-9.4811 7.4886-2.1617 11.757-0.0034 16.636-5.5348-4.9933-9.5945-9.3895-6.8715-13.48 3.9987-6.0043 15.078-8.9163 12.631-18.558z"/>
   <path d="m-84.532 83.074c10.515 0.67227 26.667-0.37411 27.049-5.3501 0 0-0.73479 1.8863-8.6909 3.383-8.9758 1.6898-20.049 1.4931-26.614 0.40912 0 0 1.3449 1.1132 8.2557 1.5579z"/>
  </g>
  <g fill="#fff" style="enable-background:new" transform="matrix(.47947 0 0 .47947 61.887 -1.9193)">
   <path d="m-86.682 70.021s-2.2303 1.2982 1.5891 1.7362c4.6278 0.52836 6.9927 0.45227 12.091-0.51144 0 0 1.3431 0.84021 3.2156 1.5679-11.433 4.8982-25.875-0.28382-16.896-2.7927z"/>
   <path d="m-88.08 63.628s-2.5019 1.8524 1.3204 2.2474c4.944 0.5104 8.8468 0.55226 15.604-0.74823 0 0 0.93244 0.94717 2.4009 1.4648-13.821 4.0426-29.214 0.31805-19.326-2.964z"/>
   <path d="m-76.304 52.781c2.8185 3.2444-0.73906 6.1616-0.73906 6.1616s7.1525-3.6917 3.8684-8.3168c-3.0684-4.3112-5.4208-6.4528 7.3147-13.839 0.000129 0-19.992 4.9918-10.444 15.994z"/>
   <path d="m-61.183 74.75s1.6511 1.3611-1.8185 2.4137c-6.5975 1.9983-27.465 2.6011-33.261 0.07996-2.082-0.90686 1.8242-2.1638 3.0532-2.4293 1.2815-0.27723 2.0132-0.22659 2.0132-0.22659-2.3172-1.6317-14.977 3.2046-6.4297 4.5917 23.308 3.7781 42.488-1.7017 36.442-4.4294z"/>
   <path d="m-85.609 57.003s-10.613 2.5215-3.7582 3.4379c2.8952 0.38742 8.6634 0.29828 14.04-0.15282 4.393-0.36869 8.8016-1.1572 8.8016-1.1572s-1.5479 0.664-2.6685 1.4288c-10.78 2.8352-31.6 1.5148-25.605-1.3838 5.0675-2.4515 9.1898-2.1729 9.1898-2.1729z"/>
   <path d="m-66.569 67.644c10.957-5.6922 5.8904-11.163 2.3541-10.426-0.86475 0.18047-1.2527 0.33678-1.2527 0.33678s0.32218-0.50472 0.93567-0.72187c6.9959-2.4584 12.375 7.2531-2.256 11.099-0.00013 0 0.1682-0.15244 0.21896-0.28808z"/>
   <path d="m-73.174 24.859s6.0668 6.0703-5.756 15.402c-9.4811 7.4886-2.1617 11.757-0.0034 16.636-5.5348-4.9933-9.5945-9.3895-6.8715-13.48 3.9987-6.0043 15.078-8.9163 12.631-18.558z"/>
   <path d="m-84.532 83.074c10.515 0.67227 26.667-0.37411 27.049-5.3501 0 0-0.73479 1.8863-8.6909 3.383-8.9758 1.6898-20.049 1.4931-26.614 0.40912 0 0 1.3449 1.1132 8.2557 1.5579z"/>
  </g>
 </g>
 <path opacity=".2" d="m43.979 24.418a20 20 0 0 1 -19.979 19.582 20 20 0 0 1 -19.978 -19.418 20 20 0 0 0 -0.022 0.418 20 20 0 0 0 20 20 20 20 0 0 0 20 -20 20 20 0 0 0 -0.021 -0.582z"/>
</svg>
