<svg xmlns="http://www.w3.org/2000/svg" width="48" height="48" version="1">
 <path style="opacity:0.2" d="M 44,41 V 9 C 44,7.892 43.108,7 42,7 H 6 C 4.892,7 4,7.892 4,9 v 32 c 0,1.108 0.892,2 2,2 h 36 c 1.108,0 2,-0.892 2,-2 z"/>
 <path style="fill:#36aca3" d="M 44,40 V 8 C 44,6.892 43.108,6 42,6 H 6 C 4.892,6 4,6.892 4,8 v 32 c 0,1.108 0.892,2 2,2 h 36 c 1.108,0 2,-0.892 2,-2 z"/>
 <path style="opacity:0.2;fill:#ffffff" d="M 6,6 C 4.892,6 4,6.892 4,8 V 9 C 4,7.892 4.892,7 6,7 h 36 c 1.108,0 2,0.892 2,2 V 8 C 44,6.892 43.108,6 42,6 Z"/>
 <path style="opacity:0.2" d="m 16.5,20.69 9.9375,11.25 6.375,-6.1875 L 39,31.94 v 5.0625 H 9 v -7.5 z"/>
 <path style="fill:#ffffff" d="m 16.5,19.69 9.9375,11.25 6.375,-6.1875 L 39,30.94 v 5.0625 H 9 v -7.5 z"/>
</svg>
