<svg xmlns="http://www.w3.org/2000/svg" width="48" height="48" version="1.1">
 <path style="opacity:0.2" d="M 10,5 C 8.892,5 8,5.892 8,7 V 43 C 8,44.108 8.892,45 10,45 H 38 C 39.108,45 40,44.108 40,43 V 17 L 28,5 Z"/>
 <path style="fill:#1c59a5" d="M 10,4 C 8.892,4 8,4.892 8,6 V 42 C 8,43.108 8.892,44 10,44 H 38 C 39.108,44 40,43.108 40,42 V 16 L 28,4 Z"/>
 <path style="opacity:0.2" d="M 40,17 28,5 V 15 C 28,16.108 28.892,17 30,17 Z"/>
 <path style="fill:#6295d3" d="M 40,16 28,4 V 14 C 28,15.108 28.892,16 30,16 Z"/>
 <path style="opacity:0.1;fill:#ffffff" d="M 10 4 C 8.892 4 8 4.892 8 6 L 8 7 C 8 5.892 8.892 5 10 5 L 28 5 L 28 4 L 10 4 z"/>
 <path style="fill:none;stroke:#000000;stroke-width:2;stroke-linecap:round;opacity:0.2" d="M 20,39 C 13,37 21,34 14,31 M 20,23 C 13,25 21,28 14,31 M 28,39 C 35,37 27,34 34,31 M 28,23 C 35,25 27,28 34,31"/>
 <path style="fill:none;stroke:#ffffff;stroke-width:2;stroke-linecap:round" d="M 20,38 C 13,36 21,33 14,30 M 20,22 C 13,24 21,27 14,30 M 28,38 C 35,36 27,33 34,30 M 28,22 C 35,24 27,27 34,30"/>
</svg>
