<svg xmlns="http://www.w3.org/2000/svg" width="48" height="48" version="1.1">
 <path style="opacity:0.2" d="M 10,5 C 8.892,5 8,5.892 8,7 V 43 C 8,44.108 8.892,45 10,45 H 38 C 39.108,45 40,44.108 40,43 V 17 L 28,5 Z"/>
 <path style="fill:#e4e4e4" d="M 10,4 C 8.892,4 8,4.892 8,6 V 42 C 8,43.108 8.892,44 10,44 H 38 C 39.108,44 40,43.108 40,42 V 16 L 30,14 28,4 Z"/>
 <path style="fill:#2c69c8" d="m 31.104738,29.09552 c -0.329301,-0.01577 -0.683991,0.03437 -1.049405,0.162839 -0.256804,0.09117 -0.391265,0.3008 -0.391265,0.3008 0,0 0.160258,-0.06483 0.52244,-0.140223 1.477674,-0.308046 3.594972,1.978882 -0.983817,4.358198 -0.02118,0.05664 -0.09273,0.119933 -0.09273,0.119866 5.350803,-1.406638 4.299882,-4.691102 1.994774,-4.80148 z"/>
 <path style="fill:#2c69c8" d="m 20.94315,28.854304 c -0.583759,0.01533 -1.948345,0.14114 -3.537219,0.909182 -2.50502,1.211727 6.1956,1.763608 10.699861,0.578983 0.468285,-0.319755 1.114993,-0.597076 1.114993,-0.597076 0,0 -1.841795,0.329148 -3.677441,0.483993 -2.246111,0.1882 -4.659359,0.225275 -5.868978,0.06333 -2.864836,-0.382574 1.571845,-1.436146 1.571845,-1.436146 0,0 -0.108479,-0.0074 -0.303061,-0.0023 z"/>
 <path style="fill:#2c69c8" d="m 20.212637,32.023254 c -4.133856,1.372031 2.299975,2.928473 8.076349,1.239384 -0.613988,-0.216482 -1.004173,-0.612907 -1.004173,-0.612907 -2.823064,0.543603 -4.454458,0.527494 -6.520333,0.314369 -1.597525,-0.16524 -0.551843,-0.940846 -0.551843,-0.940846 z"/>
 <path style="fill:#2c69c8" d="m 20.798405,34.483906 c -3.752531,1.048527 2.281031,3.214598 7.058606,1.16701 -0.782515,-0.304297 -1.341158,-0.655878 -1.341158,-0.655878 -2.131194,0.403361 -3.120864,0.43322 -5.054786,0.212595 -1.59634,-0.183525 -0.662662,-0.723727 -0.662662,-0.723727 z"/>
 <path style="fill:#2c69c8" d="m 18.371656,36.406368 c -1.612652,-0.06214 -5.273923,1.549219 -2.148567,2.055838 9.740912,1.579698 17.756604,-0.712591 15.229943,-1.85229 0,0 0.69033,0.568762 -0.759914,1.008696 -2.757679,0.835401 -11.477693,1.08831 -13.900094,0.03393 -0.870791,-0.378824 0.761898,-0.905169 1.275571,-1.015481 0.53571,-0.116167 0.843594,-0.09273 0.843594,-0.09273 -0.12105,-0.08527 -0.310155,-0.129084 -0.540533,-0.137961 z"/>
 <path style="fill:#2c69c8" d="m 33,37.688673 c 0,0 -0.30718,0.787439 -3.632208,1.413531 -3.751282,0.705947 -8.37866,0.624316 -11.12279,0.171884 6.8e-5,-6.6e-5 0.562696,0.463859 3.451277,0.649094 C 26.091345,40.204522 32.840155,39.768297 33,37.688673 Z"/>
 <path style="fill:#fa7800" d="m 26.642229,15.594626 c 1.023137,4.029332 -3.607425,5.247895 -5.278688,7.757455 -1.138646,1.709612 0.557286,3.544844 2.870031,5.631506 -0.901863,-2.038381 -3.959842,-3.821042 0.0023,-6.950048 4.940906,-3.900667 2.406395,-6.438913 2.406395,-6.438913 z"/>
 <path style="fill:#fa7800" d="m 29.442622,20.579299 c 0,0 -8.353176,2.087438 -4.362721,6.685434 1.177193,1.355323 -0.309845,2.576019 -0.309845,2.576019 0,0 2.989834,-1.543878 1.617079,-3.476155 -1.28211,-1.801968 -2.267203,-2.698325 3.055487,-5.785298 z"/>
 <path style="opacity:0.2" d="M 40,17 28,5 V 15 C 28,16.108 28.892,17 30,17 Z"/>
 <path style="fill:#fafafa" d="M 40,16 28,4 V 14 C 28,15.108 28.892,16 30,16 Z"/>
 <path style="opacity:0.2;fill:#ffffff" d="M 10 4 C 8.892 4 8 4.892 8 6 L 8 7 C 8 5.892 8.892 5 10 5 L 28 5 L 28 4 L 10 4 z"/>
</svg>
