<svg xmlns="http://www.w3.org/2000/svg" width="48" height="48" version="1">
 <rect style="opacity:0.2" width="40" height="36" x="4" y="7" rx="3" ry="3"/>
 <rect style="fill:#e4e4e4" width="40" height="36" x="4" y="6" rx="3" ry="3"/>
 <path style="fill:#363636" d="m 24,17 a 12,12 0 0 0 -12,12 12,12 0 0 0 0.04297,1 h 2.007812 A 10,10 0 0 1 14,29 10,10 0 0 1 23.980469,19 10,10 0 0 1 24,19 10,10 0 0 1 34,29 10,10 0 0 1 33.94922,30 h 2.007812 A 12,12 0 0 0 36,29 12,12 0 0 0 24,17 Z"/>
 <path style="opacity:0.1" d="M 11.951172,17 A 2,2 0 0 0 10,19 a 2,2 0 0 0 2,2 2,2 0 0 0 1.730469,-1 H 34.269531 A 2,2 0 0 0 36,21 2,2 0 0 0 38,19 2,2 0 0 0 36,17 2,2 0 0 0 34.269531,18 H 13.730469 A 2,2 0 0 0 12,17 a 2,2 0 0 0 -0.04883,0 z"/>
 <rect style="fill:#ff4b4b" width="22" height="2" x="13" y="17"/>
 <path style="opacity:0.1" d="m 22,16 c -0.554,0 -1,0.446 -1,1 v 4 c 0,0.554 0.446,1 1,1 h 4 c 0.554,0 1,-0.446 1,-1 v -4 c 0,-0.554 -0.446,-1 -1,-1 z M 11,28 c -0.554,0 -1,0.446 -1,1 v 4 c 0,0.554 0.446,1 1,1 h 4 c 0.554,0 1,-0.446 1,-1 v -4 c 0,-0.554 -0.446,-1 -1,-1 z m 22,0 c -0.554,0 -1,0.446 -1,1 v 4 c 0,0.554 0.446,1 1,1 h 4 c 0.554,0 1,-0.446 1,-1 v -4 c 0,-0.554 -0.446,-1 -1,-1 z"/>
 <rect style="fill:#3974e1" width="6" height="6" x="10" y="27" rx="1" ry="1"/>
 <rect style="fill:#3974e1" width="6" height="6" x="32" y="27" rx="1" ry="1"/>
 <circle style="fill:#ff4b4b" cx="36" cy="18" r="2"/>
 <rect style="fill:#3974e1" width="6" height="6" x="21" y="15" rx="1" ry="1"/>
 <path style="opacity:0.2;fill:#ffffff" d="M 7 6 C 5.338 6 4 7.338 4 9 L 4 10 C 4 8.338 5.338 7 7 7 L 41 7 C 42.662 7 44 8.338 44 10 L 44 9 C 44 7.338 42.662 6 41 6 L 7 6 z"/>
 <circle style="fill:#ff4b4b" cx="12" cy="18" r="2"/>
</svg>
