<svg xmlns="http://www.w3.org/2000/svg" width="48" height="48" version="1">
 <path style="opacity:0.2" d="M 10,5 C 8.892,5 8,5.892 8,7 v 36 c 0,1.108 0.892,2 2,2 h 28 c 1.108,0 2,-0.892 2,-2 V 17 L 29,16 28,5 Z"/>
 <path opacity=".1" transform="translate(-135.61 -237.72)" d="m163.22 242.45v11c0 1.1046 0.89543 2 2 2h10l-1-1-10-9z"/>
 <path fill="#e4e4e4" d="m10 4c-1.108 0-2 0.892-2 2v36c0 1.108 0.892 2 2 2h28c1.108 0 2-0.892 2-2v-26l-11-1-1-11z"/>
 <path fill="#fff" opacity=".2" d="m10 4c-1.108 0-2 0.892-2 2v1c0-1.108 0.892-2 2-2h18l11 11h1l-12-12z"/>
 <path style="opacity:0.2" d="m 28,5 v 10 c 0,1.1046 0.89543,2 2,2 h 10 z"/>
 <path fill="#fafafa" d="m28 4v10c0 1.1046 0.89543 2 2 2h10l-12-12z"/>
 <path fill-rule="evenodd" opacity=".5" d="m19.064 21.482a1.0001 1.0001 0 0 0 -0.095 0.002 1.0001 1.0001 0 0 0 -0.264 0.055s-0.626 0.206-1.351 0.588c-0.726 0.382-1.607 0.916-2.174 1.834-0.631 1.021-0.392 2.114-0.196 2.768 0.197 0.653 0.305 0.939 0.123 1.376-0.088 0.214-0.631 0.682-1.224 0.973-0.594 0.291-1.133 0.443-1.133 0.443a1.0001 1.0001 0 0 0 -0.715 1.229 1.0001 1.0001 0 0 0 0.715 1.201s0.539 0.153 1.133 0.444c0.593 0.29 1.136 0.758 1.224 0.972 0.182 0.438 0.074 0.723-0.123 1.377-0.196 0.654-0.435 1.746 0.196 2.768 0.567 0.917 1.448 1.452 2.174 1.834 0.725 0.381 1.351 0.588 1.351 0.588a1.0001 1.0001 0 1 0 0.629 -1.897s-0.476-0.159-1.049-0.461c-0.573-0.301-1.186-0.766-1.402-1.117-0.245-0.397-0.165-0.534 0.017-1.141 0.183-0.607 0.512-1.614 0.055-2.716-0.404-0.976-1.211-1.493-1.934-1.866 0.723-0.372 1.53-0.889 1.934-1.865 0.457-1.102 0.128-2.11-0.055-2.717-0.182-0.607-0.262-0.744-0.017-1.14 0.216-0.351 0.829-0.816 1.402-1.118 0.573-0.301 1.049-0.46 1.049-0.46a1.0001 1.0001 0 0 0 -0.27 -1.954zm9.932 0a1.0001 1.0001 0 0 0 -0.266 1.954s0.476 0.159 1.049 0.46c0.573 0.302 1.186 0.767 1.403 1.118 0.245 0.396 0.164 0.533-0.018 1.14s-0.511 1.615-0.055 2.717c0.405 0.976 1.211 1.493 1.934 1.865-0.723 0.373-1.529 0.89-1.934 1.866-0.456 1.102-0.127 2.109 0.055 2.716s0.263 0.744 0.018 1.141c-0.217 0.351-0.83 0.816-1.403 1.117-0.573 0.302-1.049 0.461-1.049 0.461a1.0001 1.0001 0 1 0 0.629 1.897s0.627-0.207 1.352-0.588c0.725-0.382 1.607-0.917 2.174-1.834 0.631-1.022 0.391-2.114 0.195-2.768s-0.304-0.939-0.123-1.377c0.089-0.214 0.631-0.682 1.225-0.972 0.593-0.291 1.132-0.444 1.132-0.444a1.0001 1.0001 0 0 0 0.715 -1.201 1.0001 1.0001 0 0 0 -0.715 -1.229s-0.539-0.152-1.132-0.443c-0.594-0.291-1.136-0.759-1.225-0.973-0.181-0.437-0.073-0.723 0.123-1.376 0.196-0.654 0.436-1.747-0.195-2.768-0.567-0.918-1.449-1.452-2.174-1.834s-1.352-0.588-1.352-0.588a1.0001 1.0001 0 0 0 -0.263 -0.055 1.0001 1.0001 0 0 0 -0.096 -0.002 1.0001 1.0001 0 0 0 -0.004 0zm-4.996 4.518a2 2 0 0 0 -2 2 2 2 0 0 0 2 2 2 2 0 0 0 2 -2 2 2 0 0 0 -2 -2zm0 6c-1.105 0-2 0.895-2 2s0.895 2 2 2c0.707 0 1 2 1 2s1-3.602 1-4c0-1.105-0.895-2-2-2z"/>
</svg>
