<svg xmlns="http://www.w3.org/2000/svg" width="48" height="48" version="1">
 <path style="opacity:0.2" d="M 10,5 C 8.892,5 8,5.892 8,7 v 36 c 0,1.108 0.892,2 2,2 h 28 c 1.108,0 2,-0.892 2,-2 V 17 L 29,16 28,5 Z"/>
 <path fill="#e4e4e4" d="m10 4c-1.108 0-2 0.892-2 2v36c0 1.108 0.892 2 2 2h28c1.108 0 2-0.892 2-2v-26l-11-1-1-11z"/>
 <path fill="#fff" opacity=".2" d="m10 4c-1.108 0-2 0.892-2 2v1c0-1.108 0.892-2 2-2h18l11 11h1l-12-12z"/>
 <path style="opacity:0.2" d="m 28,5 v 10 c 0,1.1046 0.89543,2 2,2 h 10 z"/>
 <path fill="#fafafa" d="m28 4v10c0 1.1046 0.89543 2 2 2h10l-12-12z"/>
 <g style="fill:#09a576" transform="matrix(0.1786,0,0,0.18927,15.507,21.000044)">
  <g style="fill:#09a576">
   <g style="fill:#09a576">
    <g style="fill:#09a576">
     <g style="fill:#09a576">
      <g style="fill:#09a576">
       <path style="fill:#09a576" d="M 47.561,0 C 25.928,0 8.39,6.393 8.39,14.283 v 11.72 c 0,7.891 17.538,14.282 39.171,14.282 21.632,0 39.17,-6.392 39.17,-14.282 V 14.283 C 86.731,6.393 69.193,0 47.561,0 Z"/>
      </g>
     </g>
     <g style="fill:#09a576">
      <g style="fill:#09a576">
       <path style="fill:#09a576" d="m 47.561,47.115 c -20.654,0 -37.682,-5.832 -39.171,-13.227 -0.071,0.353 0,19.355 0,19.355 0,7.892 17.538,14.283 39.171,14.283 21.632,0 39.17,-6.393 39.17,-14.283 0,0 0.044,-19.003 -0.026,-19.355 -1.491,7.396 -18.491,13.227 -39.144,13.227 z"/>
      </g>
     </g>
     <path style="fill:#09a576" d="M 86.694,61.464 C 85.206,68.855 68.215,74.69 47.561,74.69 26.907,74.69 9.875,68.854 8.386,61.464 L 8.39,80.82 c 0,7.891 17.538,14.282 39.171,14.282 21.632,0 39.17,-6.393 39.17,-14.282 z"/>
    </g>
   </g>
  </g>
 </g>
</svg>
