<svg version="1.2" xmlns="http://www.w3.org/2000/svg" viewBox="0 0 48 48" width="48" height="48">
	<title>folders-svg</title>
	<defs>
		<linearGradient id="g1" x2="1" gradientUnits="userSpaceOnUse" gradientTransform="matrix(0,-48.959,190.941,0,-38.837,49.923)">
			<stop offset="0" stop-color="#000000" stop-opacity=".318"/>
			<stop offset="1" stop-color="#000000" stop-opacity=".24"/>
		</linearGradient>
		<linearGradient id="g2" x2="1" gradientUnits="userSpaceOnUse" gradientTransform="matrix(0,48.248,-203.712,0,24.927,1.266)">
			<stop offset=".001" stop-color="#e19d00"/>
			<stop offset="1" stop-color="#9f7000"/>
		</linearGradient>
		<linearGradient id="g3" x2="1" gradientUnits="userSpaceOnUse" gradientTransform="matrix(0,41.867,-91.585,0,11.791,2.755)">
			<stop offset="0" stop-color="#ffffff"/>
			<stop offset=".079" stop-color="#ffffff" stop-opacity=".235"/>
			<stop offset=".947" stop-color="#ffffff" stop-opacity=".157"/>
			<stop offset="1" stop-color="#ffffff" stop-opacity=".392"/>
		</linearGradient>
		<linearGradient id="g4" x2="1" gradientUnits="userSpaceOnUse" gradientTransform="matrix(0,37.589,-146.712,0,37.715,6.155)">
			<stop offset="0" stop-color="#ffffff"/>
			<stop offset=".073" stop-color="#ffffff" stop-opacity=".235"/>
			<stop offset=".947" stop-color="#ffffff" stop-opacity=".157"/>
			<stop offset="1" stop-color="#ffffff" stop-opacity=".392"/>
		</linearGradient>
		<linearGradient id="g5" x2="1" gradientUnits="userSpaceOnUse" gradientTransform="matrix(0,49.575,-60.42,0,25.267,.507)">
			<stop offset="0" stop-color="#f9bd30"/>
			<stop offset="1" stop-color="#e0a720"/>
		</linearGradient>
		<linearGradient id="g6" x2="1" gradientUnits="userSpaceOnUse" gradientTransform="matrix(0,33.308,-41.08,0,41.143,10.606)">
			<stop offset="0" stop-color="#ffffff"/>
			<stop offset=".068" stop-color="#ffffff" stop-opacity=".235"/>
			<stop offset=".947" stop-color="#ffffff" stop-opacity=".157"/>
			<stop offset="1" stop-color="#ffffff" stop-opacity=".392"/>
		</linearGradient>
	</defs>
	<style>
		.s0 { fill: none;stroke: url(#g1);stroke-linejoin: round;stroke-width: 1 } 
		.s1 { fill: url(#g2) } 
		.s2 { fill: none;stroke: url(#g3);stroke-linecap: round;stroke-linejoin: round;stroke-width: 1 } 
		.s3 { fill: none;stroke: url(#g4);stroke-linecap: round;stroke-linejoin: round;stroke-width: 1 } 
		.s4 { opacity: .1;fill: #002e99 } 
		.s5 { fill: url(#g5);stroke: #f9bd30 } 
		.s6 { opacity: .3;fill: none;stroke: url(#g6);stroke-linecap: round;stroke-linejoin: round } 
		.s7 { fill: #fafafa } 
	</style>
	<g id="Layer 1">
		<path id="rect5505-21-1-2-8-6" fill-rule="evenodd" class="s0" d="m46.3 12.4v-3.4c0-2.5-2.1-4.6-4.6-4.6h-18.8c-1.6 0-3.8-1.7-4.5-2.3-0.8-0.7-1.9-1.1-3-1.1h-9.1c-2.5 0-4.6 2-4.6 4.6v6.8"/>
		<path id="rect5505-21-1-2-8-6-1" fill-rule="evenodd" class="s1" d="m6.3 1.6c-2.2 0-4 1.7-4 4v6.3h43.4v-2.9c0-2.2-1.8-4-4-4h-18.8c-1 0-2-0.5-2.9-1-0.9-0.6-1.6-1.2-2-1.5-0.7-0.6-1.6-0.9-2.6-0.9z"/>
		<path id="rect5505-21-1-2-8-6-1-9" fill-rule="evenodd" class="s2" d="m22.9 5.6c-1.2 0-2.3-0.6-3.2-1.2-0.9-0.5-1.7-1.1-2.1-1.5-0.6-0.5-1.3-0.8-2.2-0.8h-9.1c-1.9 0-3.4 1.6-3.4 3.5v5.7"/>
		<path id="rect5505-21-1-2-8-6-1-9-9" fill-rule="evenodd" class="s3" d="m45.1 11.3v-2.3c0-1.9-1.5-3.4-3.4-3.4h-18.8"/>
		<path id="rect5505-21-1-9-7" fill-rule="evenodd" class="s4" d="m6.2 6.1c-3 0-5.7 2.7-5.6 5.8 0 9.3-0.1 18.6 0 28 0.2 2.9 3 5.3 5.9 5.1 11.9 0 23.8 0 35.6 0 3-0.1 5.5-3 5.3-5.9 0-9.3 0.1-18.6 0-27.8-0.2-2.9-3-5.3-5.9-5.2q-17.6 0-35.3 0z"/>
		<path id="rect5505-21-1-9" fill-rule="evenodd" class="s4" d="m1.7 11.3c0-2.2 1.8-4 4-4h36.6c2.2 0 4 1.8 4 4v28.6c0 2.2-1.8 4-4 4h-36.6c-2.2 0-4-1.8-4-4z"/>
		<path id="rect5505-21-1" fill-rule="evenodd" class="s5" d="m1.7 13c0-2.2 1.8-4 4-4h36.6c2.2 0 4 1.8 4 4v28.6c0 2.2-1.8 4-4 4h-36.6c-2.2 0-4-1.8-4-4z"/>
		<path id="rect6741-2" fill-rule="evenodd" class="s6" d="m2.9 13.1c0-1.6 1.3-3 3-3h36.2c1.7 0 3 1.4 3 3v28.3c0 1.7-1.3 3-3 3h-36.2c-1.7 0-3-1.3-3-3z"/>
		<path id="path13635-4-7-8-4" fill-rule="evenodd" class="s4" d="m22.3 18.4c-4.1 0.1-7.8 3.4-8.4 7.5-0.7 3.9 1.7 8.1 5.4 9.6 2.4 1 5.3 0.8 7.6-0.4 1.6 1.5 3.2 3.3 4.9 4.8 1.1 0.9 3 0.5 3.7-0.8 0.6-1 0.3-2.5-0.6-3.3q-2.2-2.1-4.4-4.3c1.8-3.3 1.2-7.7-1.4-10.4-1.8-1.8-4.3-2.9-6.8-2.7zm1.3 4.1c2.5 0.5 4.3 3.1 3.9 5.5-0.4 2.8-3.5 4.8-6.2 3.9-2.6-0.7-4.1-3.9-3.1-6.3 0.8-2.2 3.2-3.5 5.4-3.1z"/>
		<path id="path13635-4-7-8" fill-rule="evenodd" class="s4" d="m22.7 19.5c-4.3 0-7.8 3.5-7.8 7.8 0 4.2 3.5 7.7 7.8 7.7q0.6 0 1.2-0.1 0.5-0.1 1.1-0.3 0.5-0.1 1.1-0.4 0.5-0.2 1-0.6l5.2 5.2c0.2 0.3 0.6 0.4 1 0.4 0.3 0 0.7-0.1 1-0.4 0.2-0.2 0.4-0.6 0.4-1 0-0.4-0.2-0.7-0.5-1l-5.1-5.2q0.3-0.4 0.6-1 0.2-0.5 0.4-1 0.2-0.6 0.2-1.2 0.1-0.6 0.1-1.1c0-4.3-3.5-7.8-7.7-7.8zm0 1.8q1.2 0 2.3 0.4 1.1 0.5 1.9 1.3 0.9 0.9 1.3 2 0.5 1.1 0.5 2.3 0 1.1-0.5 2.2-0.4 1.1-1.3 2-0.8 0.8-1.9 1.3-1.1 0.4-2.3 0.4-1.2 0-2.3-0.4-1.1-0.5-1.9-1.3-0.9-0.9-1.3-2-0.5-1.1-0.5-2.2 0-1.2 0.5-2.3 0.4-1.1 1.3-2 0.8-0.8 1.9-1.3 1.1-0.4 2.3-0.4z"/>
		<path id="path13635-4-7" fill-rule="evenodd" class="s7" d="m22.7 18.4c-4.3 0-7.8 3.5-7.8 7.7 0 4.3 3.5 7.8 7.8 7.8q0.6 0 1.2-0.1 0.5-0.1 1.1-0.3 0.5-0.2 1.1-0.4 0.5-0.3 1-0.6l5.2 5.2c0.2 0.2 0.6 0.4 1 0.4 0.3 0 0.7-0.1 1-0.4 0.2-0.3 0.4-0.6 0.4-1 0-0.4-0.2-0.8-0.5-1l-5.1-5.2q0.3-0.5 0.6-1 0.2-0.5 0.4-1.1 0.2-0.5 0.2-1.1 0.1-0.6 0.1-1.2c0-4.2-3.5-7.7-7.7-7.7zm0 1.7q1.2 0 2.3 0.5 1.1 0.4 1.9 1.3 0.9 0.8 1.3 1.9 0.5 1.1 0.5 2.3 0 1.2-0.5 2.3-0.4 1.1-1.3 1.9-0.8 0.9-1.9 1.3-1.1 0.5-2.3 0.5-1.2 0-2.3-0.5-1.1-0.4-1.9-1.3-0.9-0.8-1.3-1.9-0.5-1.1-0.5-2.3 0-1.2 0.5-2.3 0.4-1.1 1.3-1.9 0.8-0.9 1.9-1.3 1.1-0.5 2.3-0.5z"/>
		<path id="path13635-4-7-5" fill-rule="evenodd" class="s4" d="m22.7 19q-1.2 0-2.3 0.4-1.1 0.5-1.9 1.3-0.9 0.9-1.3 2-0.5 1.1-0.5 2.3 0 0 0 0.1 0 0.1 0 0.2 0 0 0 0.1 0 0.1 0.1 0.1 0.1-1.1 0.6-2.1 0.5-1 1.3-1.7 0.8-0.8 1.8-1.2 1.1-0.4 2.2-0.4 1.1 0 2.2 0.4 1 0.5 1.8 1.2 0.9 0.8 1.4 1.8 0.4 1 0.5 2.1 0 0 0-0.1 0.1-0.1 0.1-0.2 0-0.1 0-0.2 0 0 0-0.1 0-1.2-0.5-2.3-0.4-1.1-1.3-2-0.8-0.8-1.9-1.3-1.1-0.4-2.3-0.4zm7.7 6.4q0 0.5-0.1 1.1-0.1 0.5-0.3 1-0.2 0.5-0.4 0.9-0.2 0.5-0.5 1l0.4 0.4q0.2-0.4 0.4-0.9 0.2-0.4 0.3-0.9 0.1-0.5 0.2-0.9 0-0.5 0-1 0-0.3 0-0.7zm-15.4 0.1q-0.1 0.3-0.1 0.6c0 4.3 3.5 7.8 7.8 7.8q0.6 0 1.2-0.1 0.5-0.1 1.1-0.3 0.5-0.2 1.1-0.4 0.5-0.3 1-0.6l5.2 5.2q0.3 0.3 0.8 0.4 0.5 0 0.9-0.3 0.5-0.2 0.6-0.7 0.1-0.5-0.1-1-0.1 0.3-0.4 0.5-0.2 0.3-0.6 0.3-0.3 0.1-0.7 0-0.3-0.1-0.5-0.4l-5.2-5.2q-0.5 0.4-1 0.6-0.6 0.3-1.1 0.5-0.6 0.1-1.1 0.2-0.6 0.1-1.2 0.1c-4.1 0-7.4-3.2-7.7-7.2z"/>
	</g>
</svg>