<svg xmlns="http://www.w3.org/2000/svg" width="48" height="48" version="1">
 <rect style="fill:#713a9d" width="40" height="40" x="4" y="4" rx="2" ry="2"/>
 <path fill="#fff" opacity=".1" d="m6 4c-1.108 0-2 0.892-2 2v1c0-1.108 0.892-2 2-2h36c1.108 0 2 0.892 2 2v-1c0-1.108-0.892-2-2-2h-36z"/>
 <path opacity=".2" d="m6 45c-1.108 0-2-0.892-2-2v-1c0 1.108 0.892 2 2 2h36c1.108 0 2-0.892 2-2v1c0 1.108-0.892 2-2 2h-36z"/>
 <path style="opacity:0.5;fill:#ffffff" d="m 22,23 v 4 h 12 c 1.108,0 2,-0.892 2,-2 0,-1.108 -0.892,-2 -2,-2 z m 4,10 v 4 h 8 c 1.108,0 2,-0.892 2,-2 0,-1.108 -0.892,-2 -2,-2 z"/>
 <path style="fill:#f44336" d="M 29,13 H 14 C 12.892,13 12,13.892 12,15 12,16.108 12.892,17 14,17 H 29 Z"/>
 <path style="fill:#03a9f4" d="M 27,33 H 14 C 12.892,33 12,33.892 12,35 12,36.108 12.892,37 14,37 H 27 Z"/>
 <path style="fill:#4caf50" d="M 21,23 H 14 C 12.892,23 12,23.892 12,25 12,26.108 12.892,27 14,27 H 21 Z"/>
 <path style="opacity:0.2" d="m 36,16 c 0,-2.209 -1.791,-4 -4,-4 -2.209,0 -4,1.791 -4,4 0,2.209 1.791,4 4,4 2.209,0 4,-1.791 4,-4 z"/>
 <path style="opacity:0.2" d="m 30,36 c 0,-2.209 -1.791,-4 -4,-4 -2.209,0 -4,1.791 -4,4 0,2.209 1.791,4 4,4 2.209,0 4,-1.791 4,-4 z"/>
 <path style="opacity:0.2" d="m 26,26 c 0,-2.209 -1.791,-4 -4,-4 -2.209,0 -4,1.791 -4,4 0,2.209 1.791,4 4,4 2.209,0 4,-1.791 4,-4 z"/>
 <path style="fill:#ffffff" d="m 36,15 c 0,-2.209 -1.791,-4 -4,-4 -2.209,0 -4,1.791 -4,4 0,2.209 1.791,4 4,4 2.209,0 4,-1.791 4,-4 z"/>
 <path style="fill:#ffffff" d="m 30,35 c 0,-2.209 -1.791,-4 -4,-4 -2.209,0 -4,1.791 -4,4 0,2.209 1.791,4 4,4 2.209,0 4,-1.791 4,-4 z"/>
 <path style="fill:#ffffff" d="m 26,25 c 0,-2.209 -1.791,-4 -4,-4 -2.209,0 -4,1.791 -4,4 0,2.209 1.791,4 4,4 2.209,0 4,-1.791 4,-4 z"/>
</svg>
