<svg version="1.2" xmlns="http://www.w3.org/2000/svg" viewBox="0 0 16 16" width="16" height="16">
	<title>shared-svg</title>
	<style>
		.s0 { fill: #4e5158 } 
	</style>
	<g id="Layer 1">
		<path id="Layer" class="s0" d="m7 14c0 0-1 0-1-1 0-1 1-4 5-4 4 0 5 3 5 4 0 1-1 1-1 1zm4-6c0.8 0 1.6-0.3 2.1-0.9 0.6-0.5 0.9-1.3 0.9-2.1 0-0.8-0.3-1.6-0.9-2.1-0.5-0.6-1.3-0.9-2.1-0.9-0.8 0-1.6 0.3-2.1 0.9-0.6 0.5-0.9 1.3-0.9 2.1 0 0.8 0.3 1.6 0.9 2.1 0.5 0.6 1.3 0.9 2.1 0.9zm-5.8 6q0-0.1-0.1-0.2 0-0.2 0-0.3-0.1-0.1-0.1-0.2 0-0.2 0-0.3c0-1.4 0.7-2.8 1.9-3.7q-0.2-0.1-0.4-0.1-0.3-0.1-0.5-0.1-0.3-0.1-0.5-0.1-0.3 0-0.5 0c-4 0-5 3-5 4 0 1 1 1 1 1zm-0.7-6c0.6 0 1.3-0.3 1.8-0.7 0.4-0.5 0.7-1.1 0.7-1.8 0-0.7-0.3-1.3-0.7-1.8-0.5-0.4-1.2-0.7-1.8-0.7-0.7 0-1.3 0.3-1.8 0.7-0.5 0.5-0.7 1.1-0.7 1.8 0 0.7 0.2 1.3 0.7 1.8 0.5 0.4 1.1 0.7 1.8 0.7z"/>
	</g>
</svg>