<svg xmlns="http://www.w3.org/2000/svg" width="48" height="48" version="1.1">
 <circle style="fill:#455a64" cx="24" cy="24" r="20"/>
 <path style="fill:#ffffff;fill-rule:evenodd" d="m 17.005094,11.872654 c -5.13206,2.948632 -7.6755277,8.646238 -6.852848,14.132708 0.03767,0.28147 0.09,0.561867 0.145498,0.842044 0.01237,0.05748 0.02152,0.114978 0.03456,0.172425 0.293876,1.391337 0.795022,2.760449 1.547149,4.056856 3.846932,6.630782 12.415537,8.895133 19.108168,5.049873 5.083653,-2.920821 7.63302,-8.537753 6.883521,-13.97598 -1.82e-4,-0.0014 -3.85e-4,-0.0027 -2.18e-4,-0.0044 -0.04624,-0.377602 -0.118101,-0.752816 -0.196352,-1.128068 -0.2929,-1.404557 -0.802571,-2.787568 -1.561371,-4.095476 -3.84608,-6.629311 -12.416928,-8.8943347 -19.108168,-5.049872 z m 0.215333,2.378225 2.347497,4.046274 c -1.182036,0.625151 -2.360475,1.14006 -3.495534,1.536606 -0.05337,-0.445406 -0.09165,-0.881915 -0.09772,-1.296476 -0.02807,-1.911211 0.427639,-3.375294 1.245828,-4.286457 z m 1.772082,-0.928715 c 0.09974,-0.03738 0.198462,-0.08012 0.298508,-0.115617 1.142274,-0.128657 2.51762,0.226112 4.01737,1.11707 0.351132,0.208609 0.705053,0.454523 1.059286,0.717254 -0.9051,0.782329 -1.937943,1.545998 -3.068482,2.257117 l -2.306654,-3.975875 z m -4.950771,3.948974 c -0.04293,0.425621 -0.07199,0.857308 -0.06546,1.303056 0.0087,0.593397 0.06572,1.208888 0.152887,1.835002 -0.592851,0.144062 -1.158997,0.246833 -1.701996,0.318317 0.344635,-1.22395 0.890788,-2.389443 1.614565,-3.456348 z m 9.468753,-5.095961 c 0.582406,-0.08386 1.047046,-0.116876 1.513256,-0.149511 0.647275,0.05393 1.287996,0.158268 1.915654,0.314595 -0.327202,0.4312 -0.6948,0.86799 -1.11056,1.306588 -0.49139,-0.378645 -0.987695,-0.728751 -1.489406,-1.026858 -0.273936,-0.162754 -0.551049,-0.307076 -0.829031,-0.444845 z m 5.313269,0.810813 c 1.971064,0.856094 3.721371,2.242042 5.017016,4.104393 l -3.263233,1.874895 c -0.974632,-1.53353 -2.07399,-2.882046 -3.241204,-4.011341 0.570161,-0.607833 1.08023,-1.222455 1.51502,-1.838567 -0.0056,-0.04668 -0.01719,-0.08755 -0.02769,-0.129419 z m -16.777964,9.791844 c 0.788463,-0.07063 1.618072,-0.216109 2.471963,-0.418615 0.399545,1.559751 1.020223,3.16911 1.861198,4.763981 l -3.251328,1.868055 c -0.948016,-1.995659 -1.287495,-4.137082 -1.081743,-6.213426 z m 13.854193,-6.432858 c 1.042488,1.004349 2.046839,2.222143 2.942571,3.617197 l -4.498776,2.584778 -2.048854,-3.531516 c 1.33302,-0.831871 2.545686,-1.73178 3.605027,-2.670475 z m -9.455556,5.466237 c 1.34567,-0.451756 2.732195,-1.056586 4.118957,-1.796423 l 2.046897,3.528144 -4.497037,2.58378 C 17.352278,24.667263 16.797659,23.203183 16.444531,21.81118 Z m -2.321283,8.897534 3.251327,-1.868055 c 0.99405,1.564002 2.117595,2.937713 3.310875,4.080859 -0.59037,0.618959 -1.117889,1.245625 -1.568954,1.874029 -1.960405,-0.855299 -3.702096,-2.234783 -4.993337,-4.086747 z m 4.986232,-2.864847 4.497037,-2.583779 2.116942,3.648876 c -1.325947,0.818098 -2.536717,1.702099 -3.596189,2.627388 -1.069696,-1.01835 -2.100274,-2.263396 -3.017849,-3.692486 z m 6.230203,-3.579573 4.498776,-2.584778 c 0.790062,1.515383 1.361436,3.036604 1.712271,4.476165 -1.335916,0.442404 -2.713413,1.034034 -4.092173,1.7609 l -2.118899,-3.65225 z m 6.233593,-3.58152 3.263234,-1.874895 c 0.977426,2.06271 1.30323,4.280947 1.051106,6.421064 -0.0065,-0.0033 -0.01017,-0.0096 -0.01668,-0.01277 -0.764402,0.06763 -1.566437,0.203647 -2.392883,0.395539 -0.397591,-1.61069 -1.034624,-3.27834 -1.904952,-4.928879 z m -4.853588,9.943344 2.276499,3.923897 c -1.201799,0.248755 -2.702445,-0.08671 -4.351222,-1.066167 -0.321157,-0.190799 -0.643829,-0.412808 -0.967827,-0.649069 0.902445,-0.767531 1.924945,-1.513277 3.042488,-2.208648 z m 1.735122,-0.99242 c 1.166721,-0.610206 2.328592,-1.113129 3.447023,-1.499787 0.04209,0.38955 0.07163,0.771019 0.07702,1.136323 0.02807,1.911445 -0.430914,3.372448 -1.249436,4.284034 l -2.274542,-3.920525 z m -6.254529,4.584018 c 0.466671,0.35529 0.937759,0.687217 1.413448,0.969833 0.373993,0.222191 0.752966,0.412441 1.133753,0.584985 -1.227301,0.08317 -2.450242,-0.0199 -3.631257,-0.303747 0.325836,-0.413823 0.678854,-0.831962 1.08401,-1.251091 z m 11.645534,-6.650714 c 0.563397,-0.134531 1.100392,-0.226412 1.61847,-0.294914 -0.345398,1.144823 -0.864228,2.235694 -1.544127,3.239219 0.03935,-0.417913 0.06368,-0.841957 0.05726,-1.27828 -0.0079,-0.539482 -0.0588,-1.099154 -0.13161,-1.66607 z"/>
</svg>
