<?xml version="1.0" encoding="utf-8"?>
<!-- Generator: Adobe Illustrator 28.0.0, SVG Export Plug-In . SVG Version: 6.00 Build 0)  -->
<svg version="1.1" id="Layer_1" xmlns="http://www.w3.org/2000/svg" xmlns:xlink="http://www.w3.org/1999/xlink" x="0px" y="0px"
	 viewBox="0 0 17 17" style="enable-background:new 0 0 17 17;" xml:space="preserve">
<g>
	<path d="M2.2,8.2H0.8c-0.2,0-0.3,0.2-0.3,0.3s0.2,0.3,0.3,0.3h1.4c0.2,0,0.3-0.2,0.3-0.3S2.4,8.2,2.2,8.2z"/>
	<path d="M3.8,4.3C3.9,4.4,4,4.4,4.1,4.4c0.1,0,0.2,0,0.2-0.1c0.1-0.1,0.1-0.4,0-0.5l-1-1C3.2,2.7,3,2.7,2.8,2.8
		C2.7,3,2.7,3.2,2.8,3.3L3.8,4.3z"/>
	<path d="M8.5,2.6c0.2,0,0.3-0.2,0.3-0.3V0.8c0-0.2-0.2-0.3-0.3-0.3S8.2,0.7,8.2,0.8v1.4C8.2,2.4,8.3,2.6,8.5,2.6z"/>
	<path d="M13.7,2.8l-1,1c-0.1,0.1-0.1,0.4,0,0.5c0.1,0.1,0.2,0.1,0.2,0.1c0.1,0,0.2,0,0.2-0.1l1-1c0.1-0.1,0.1-0.4,0-0.5
		C14,2.7,13.8,2.7,13.7,2.8z"/>
	<path d="M16.2,8.2h-1.4c-0.2,0-0.3,0.2-0.3,0.3s0.2,0.3,0.3,0.3h1.4c0.2,0,0.3-0.2,0.3-0.3S16.3,8.2,16.2,8.2z"/>
	<path d="M13.2,12.7c-0.1-0.1-0.4-0.1-0.5,0s-0.1,0.4,0,0.5l1,1c0.1,0.1,0.2,0.1,0.2,0.1c0.1,0,0.2,0,0.2-0.1c0.1-0.1,0.1-0.4,0-0.5
		L13.2,12.7z"/>
	<path d="M8.5,14.4c-0.2,0-0.3,0.2-0.3,0.3v1.4c0,0.2,0.2,0.3,0.3,0.3s0.3-0.2,0.3-0.3v-1.4C8.8,14.6,8.7,14.4,8.5,14.4z"/>
	<path d="M3.8,12.7l-1,1c-0.1,0.1-0.1,0.4,0,0.5c0.1,0.1,0.2,0.1,0.2,0.1s0.2,0,0.2-0.1l1-1c0.1-0.1,0.1-0.4,0-0.5S4,12.5,3.8,12.7z
		"/>
	<path d="M8.5,4C6,4,4,6,4,8.5C4,11,6,13,8.5,13C11,13,13,11,13,8.5C13,6,11,4,8.5,4z"/>
</g>
</svg>
