<svg version="1.2" baseProfile="tiny-ps" xmlns="http://www.w3.org/2000/svg" viewBox="0 0 48 48" width="48" height="48">
	<title>app-icon-uploader-svg</title>
	<defs>
		<linearGradient id="grd1" gradientUnits="userSpaceOnUse"  x1="48.009" y1="30.691" x2="0" y2="7.276">
			<stop offset="0" stop-color="#6cc4f5"  />
			<stop offset="1" stop-color="#b6ddf2"  />
		</linearGradient>
		<linearGradient id="grd2" gradientUnits="userSpaceOnUse"  x1="32" y1="35.912" x2="16" y2="28.109">
			<stop offset="0" stop-color="#0c2330"  />
			<stop offset="1" stop-color="#36505f"  />
		</linearGradient>
	</defs>
	<style>
		tspan { white-space:pre }
		.shp0 { fill: url(#grd1) } 
		.shp1 { fill: url(#grd2) } 
	</style>
	<g id="Layer">
		<path id="Layer" class="shp0" d="M39.79 16.16C42.25 16.61 44.45 17.95 45.97 19.94C47.48 21.93 48.19 24.41 47.97 26.9C47.74 29.39 46.6 31.7 44.75 33.39C42.91 35.07 40.5 36 38 36L10 36C7.69 36.01 5.46 35.21 3.67 33.75C1.88 32.29 0.65 30.26 0.2 28C-0.26 25.74 0.08 23.39 1.16 21.35C2.25 19.31 4 17.71 6.13 16.82C6.65 12.77 8.6 9.05 11.64 6.32C14.68 3.59 18.59 2.05 22.67 1.97C26.75 1.89 30.73 3.28 33.87 5.88C37.01 8.49 39.11 12.14 39.79 16.16L39.79 16.16Z" />
		<path id="Layer" class="shp1" d="M31.99 27.9C32.01 28.08 31.98 28.27 31.9 28.44C31.82 28.61 31.69 28.75 31.53 28.85C31.37 28.95 31.19 29 31 29L26 29L26 44C26 44.53 25.79 45.04 25.41 45.41C25.04 45.79 24.53 46 24 46C23.47 46 22.96 45.79 22.59 45.41C22.21 45.04 22 44.53 22 44L22 29L17 29C16.81 29 16.63 28.95 16.47 28.85C16.31 28.75 16.18 28.61 16.1 28.44C16.02 28.27 15.99 28.08 16.01 27.9C16.02 27.71 16.1 27.53 16.21 27.39L23.21 18.39C23.22 18.38 23.23 18.36 23.24 18.35C23.25 18.34 23.26 18.33 23.27 18.32C23.28 18.31 23.29 18.3 23.3 18.3C23.31 18.29 23.32 18.28 23.33 18.27C23.43 18.18 23.55 18.11 23.68 18.07C23.81 18.03 23.95 18.01 24.08 18.02C24.22 18.04 24.35 18.07 24.47 18.14C24.59 18.2 24.7 18.28 24.79 18.39L31.79 27.39C31.9 27.53 31.98 27.71 31.99 27.9Z" />
	</g>
</svg>