<svg width="48" height="48" viewBox="0 0 48 48" fill="none" xmlns="http://www.w3.org/2000/svg">
<path opacity="0.2" d="M10 5C8.892 5 8 5.892 8 7V43C8 44.108 8.892 45 10 45H38C39.108 45 40 44.108 40 43V17L28 5H10Z" fill="black"/>
<path d="M10 4C8.892 4 8 4.892 8 6V42C8 43.108 8.892 44 10 44H38C39.108 44 40 43.108 40 42V16L30 14L28 4H10Z" fill="#E4E4E4"/>
<path opacity="0.2" d="M40 17L28 5V15C28 16.108 28.892 17 30 17H40Z" fill="black"/>
<path d="M40 16L28 4V14C28 15.108 28.892 16 30 16H40Z" fill="#FAFAFA"/>
<path opacity="0.2" d="M10 4C8.892 4 8 4.892 8 6V7C8 5.892 8.892 5 10 5H28V4H10Z" fill="white"/>
<path opacity="0.2" d="M23.5294 42.4706L14 36.827V24.3529L14.4706 23.8178L24 18L33.5294 23.8235L34 24.3529V36.7094L24.4706 42.4706L24 42.7647L23.5294 42.4706Z" fill="black"/>
<path d="M14 24.3529L23.5294 30.2353V41.7647L14 36.1176V24.3529Z" fill="#2664EB"/>
<path d="M34 24.3529L24.4706 30.2353V41.7647L34 36.1176V24.3529Z" fill="#2664EB"/>
<path d="M24 18L14.4706 23.8235L24 29.6471L33.5294 23.8235L24 18Z" fill="#2664EB"/>
</svg>
