<svg xmlns="http://www.w3.org/2000/svg" width="48" height="48" version="1">
 <path style="opacity:0.2" d="M 10,5 C 8.892,5 8,5.892 8,7 v 36 c 0,1.108 0.892,2 2,2 h 28 c 1.108,0 2,-0.892 2,-2 V 17 L 29,16 28,5 Z"/>
 <path style="fill:#b1b527" d="M 10,4 C 8.892,4 8,4.892 8,6 v 36 c 0,1.108 0.892,2 2,2 h 28 c 1.108,0 2,-0.892 2,-2 V 16 L 29,15 28,4 Z"/>
 <path style="opacity:0.2;fill:#ffffff" d="M 10,4 C 8.892,4 8,4.892 8,6 V 7 C 8,5.892 8.892,5 10,5 h 18 l 11,11 h 1 L 28,4 Z"/>
 <path style="opacity:0.2" d="m 28,5 v 10 c 0,1.1046 0.89543,2 2,2 h 10 z"/>
 <path style="fill:#c8cb7c" d="m 28,4 v 10 c 0,1.1046 0.89543,2 2,2 h 10 z"/>
 <path style="opacity:0.2" d="m 12.5,27 2.087891,8 h 1.005859 l 1.492188,-5.210938 c 0.09576,-0.343603 0.180241,-0.670648 0.253906,-0.984374 0.07366,-0.321195 0.113727,-0.531801 0.121094,-0.628907 0.0074,0.06723 0.02957,0.187573 0.06641,0.359375 0.0442,0.164332 0.09297,0.357942 0.144531,0.582032 0.05893,0.21662 0.1212,0.429521 0.1875,0.638671 L 19.394531,35 h 1.00586 L 22.5,27 h -1.039062 l -1.214844,4.873047 c -0.0884,0.351074 -0.170476,0.69282 -0.244141,1.021484 -0.0663,0.321196 -0.113111,0.618154 -0.142578,0.894531 -0.03683,-0.253967 -0.09235,-0.550926 -0.166016,-0.894531 -0.07366,-0.343604 -0.162494,-0.687646 -0.265625,-1.03125 L 17.980469,27 h -1.027344 l -1.392578,4.830078 c -0.09577,0.328664 -0.180242,0.664208 -0.253906,1.007813 -0.07366,0.343604 -0.129183,0.659856 -0.166016,0.951171 -0.03683,-0.283847 -0.088,-0.585054 -0.154297,-0.90625 -0.05893,-0.321194 -0.132305,-0.654442 -0.220703,-0.998046 L 13.539062,27 Z m 12.789062,0 -3.113281,8 h 1.015625 l 0.845703,-2.056641 h 3.363282 L 28.257812,35 h 1.03711 l -3.101563,-8 z m 3.208985,0 2.845703,8 h 1.003906 l 2.845703,-8 h -1.060547 l -1.785156,5.109375 c -0.119014,0.336134 -0.218958,0.65009 -0.300781,0.941406 -0.08182,0.291317 -0.149105,0.566687 -0.201172,0.828125 -0.05951,-0.261438 -0.129115,-0.532559 -0.210937,-0.816406 -0.07438,-0.291317 -0.172001,-0.602975 -0.291016,-0.931641 L 29.546875,27 Z m -2.773438,1.037109 c 0.02977,0.08926 0.06671,0.219541 0.111329,0.390625 0.05207,0.163645 0.104179,0.324262 0.15625,0.480469 0.05207,0.156209 0.08901,0.264709 0.111328,0.324219 l 0.996093,2.818359 h -2.726562 l 1.005859,-2.818359 c 0.04463,-0.126453 0.09674,-0.297959 0.15625,-0.513672 0.06695,-0.223153 0.129943,-0.451051 0.189453,-0.681641 z"/>
 <path style="fill:#ffffff" d="m 22.5,26 -2.099447,8 h -1.005525 l -1.535912,-5.243697 q -0.09945,-0.313726 -0.187846,-0.638657 -0.07734,-0.336134 -0.143645,-0.582632 -0.05525,-0.257704 -0.0663,-0.358544 -0.01105,0.145659 -0.121547,0.627451 -0.110497,0.470589 -0.254144,0.985994 L 15.593922,34 H 14.588398 L 12.5,26 h 1.038674 l 1.226519,4.885154 q 0.132597,0.515406 0.220995,0.997198 0.09945,0.481793 0.154696,0.907564 0.05525,-0.436974 0.165746,-0.952381 0.110497,-0.515407 0.254144,-1.008403 L 16.953038,26 h 1.027625 l 1.447514,4.862745 q 0.154696,0.515406 0.265193,1.030812 0.110497,0.515407 0.165746,0.896359 0.0442,-0.414566 0.143646,-0.896359 0.110498,-0.492997 0.243094,-1.019608 L 21.461326,26 Z"/>
 <path style="fill:#ffffff" d="M 28.256893,34 27.400135,31.943327 H 24.037629 L 23.191342,34 H 22.176 l 3.112971,-8 h 0.903766 l 3.101813,8 z M 27.098879,31.050719 26.103476,28.23152 c -0.02232,-0.05951 -0.05951,-0.167361 -0.111576,-0.32357 -0.05207,-0.156207 -0.104135,-0.316132 -0.156206,-0.479777 -0.04462,-0.171084 -0.08181,-0.301256 -0.111576,-0.390516 -0.05951,0.23059 -0.122732,0.457461 -0.18968,0.680614 -0.05951,0.215713 -0.111574,0.386796 -0.156207,0.513249 l -1.005873,2.819199 z"/>
 <path style="fill:#ffffff" d="m 35.193561,26 -2.845188,8 H 31.344188 L 28.499,26 h 1.048815 l 1.796373,5.131652 q 0.178522,0.492998 0.290098,0.929973 0.122734,0.42577 0.211995,0.817927 0.0781,-0.392157 0.200836,-0.829132 0.122734,-0.436975 0.301256,-0.941176 L 34.133589,26 Z"/>
</svg>
