<svg xmlns="http://www.w3.org/2000/svg" width="48" height="48" version="1">
 <path style="opacity:0.2" d="M 10,5 C 8.892,5 8,5.892 8,7 v 36 c 0,1.108 0.892,2 2,2 h 28 c 1.108,0 2,-0.892 2,-2 V 17 L 29,16 28,5 Z"/>
 <path style="fill:#c03630" d="M 10,4 C 8.892,4 8,4.892 8,6 v 36 c 0,1.108 0.892,2 2,2 h 28 c 1.108,0 2,-0.892 2,-2 V 16 L 29,15 28,4 Z"/>
 <path style="opacity:0.1;fill:#ffffff" d="M 10,4 C 8.892,4 8,4.892 8,6 V 7 C 8,5.892 8.892,5 10,5 h 18 l 11,11 h 1 L 28,4 Z"/>
 <path style="opacity:0.2" d="m 28,5 v 10 c 0,1.1046 0.89543,2 2,2 h 10 z"/>
 <path style="fill:#f36961" d="m 28,4 v 10 c 0,1.1046 0.89543,2 2,2 h 10 z"/>
 <path style="opacity:0.2" d="m 22.78,19.179905 c -0.46126,0 -0.89261,0.22577 -0.99696,0.59841 -0.38752,1.4286 0.0462,3.6379 0.76956,6.3906 l -0.21821,0.53294 c -0.55387,1.3501 -1.2462,2.6947 -1.855,3.8879 -2.5135,4.918 -4.4689,7.5715 -5.7727,7.7574 l -0.005,-0.054 c -0.0283,-0.61346 1.1038,-2.1951 2.6382,-3.4526 0.16005,-0.12944 0.84304,-0.79021 0.84304,-0.79021 0,0 -0.92191,0.48667 -1.129,0.61218 -1.9228,1.1477 -2.8796,2.2976 -3.0356,3.0609 -0.0463,0.22672 -0.0166,0.5057 0.18375,0.62024 l 0.4916,0.24694 c 1.3384,0.66995 2.9841,-1.0916 5.172,-4.9262 2.2264,-0.73036 5.0043,-1.418 7.5335,-1.7906 2.264,1.2936 4.861,1.9095 5.8588,1.6436 0.18987,-0.0502 0.3896,-0.19924 0.4916,-0.33652 0.08,-0.12631 0.19183,-0.63172 0.19183,-0.63172 0,0 -0.18773,0.25547 -0.3423,0.33078 -0.63152,0.29811 -2.6253,-0.19924 -4.6712,-1.2002 1.769,-0.18828 3.2427,-0.19554 4.0303,0.0562 1.0003,0.3193 1.0011,0.64659 0.98778,0.71326 0.0135,-0.0549 0.0583,-0.27418 0.0528,-0.36753 -0.0227,-0.24006 -0.0967,-0.45443 -0.27795,-0.63172 -0.37027,-0.36479 -1.2845,-0.54862 -2.5303,-0.56509 -0.939,-0.0102 -2.065,0.072 -3.2872,0.24694 -0.56012,-0.32164 -1.1512,-0.67522 -1.6195,-1.113 -1.1877,-1.1093 -2.1832,-2.6494 -2.8014,-4.376 0.0422,-0.16553 0.0826,-0.32727 0.11944,-0.49045 0.17183,-0.77271 0.29517,-3.3274 0.29517,-3.3274 0,0 -0.48934,1.9192 -0.56622,2.2087 -0.0494,0.18357 -0.11086,0.3795 -0.18147,0.58347 -0.375,-1.3179 -0.56509,-2.5952 -0.56509,-3.564 0,-0.27379 0.0235,-0.80656 0.10105,-1.2278 0.0378,-0.30045 0.1466,-0.45647 0.2596,-0.53179 0.22357,0.0542 0.47383,0.39708 0.73509,0.97054 0.22435,0.4958 0.21017,1.07 0.21017,1.4254 0,0 0.24061,-0.87999 0.18492,-1.4001 -0.0339,-0.31223 -0.33096,-1.1155 -0.96248,-1.1061 h -0.0517 l -0.28139,-0.003 z m 0.21478,7.9791 c 0.65351,1.314 1.5548,2.5619 2.7371,3.5629 0.26357,0.22279 0.544,0.43475 0.83269,0.634 -2.1471,0.39931 -4.4021,0.96102 -6.4975,1.8389 0.37891,-0.67309 0.78861,-1.4064 1.2083,-2.1972 0.81274,-1.5368 1.3052,-2.7222 1.7194,-3.8385 z"/>
 <path style="fill:#ffffff" d="m 22.78,18.18 c -0.46126,0 -0.89261,0.22577 -0.99696,0.59841 -0.38752,1.4286 0.0462,3.6379 0.76956,6.3906 l -0.21821,0.53294 c -0.55387,1.3501 -1.2462,2.6947 -1.855,3.8879 -2.5135,4.918 -4.4689,7.5715 -5.7727,7.7574 l -0.005,-0.054 c -0.0283,-0.61346 1.1038,-2.1951 2.6382,-3.4526 0.16005,-0.12944 0.84304,-0.79021 0.84304,-0.79021 0,0 -0.92191,0.48667 -1.129,0.61218 -1.9228,1.1477 -2.8796,2.2976 -3.0356,3.0609 -0.0463,0.22672 -0.0166,0.5057 0.18375,0.62024 l 0.4916,0.24694 c 1.3384,0.66995 2.9841,-1.0916 5.172,-4.9262 2.2264,-0.73036 5.0043,-1.418 7.5335,-1.7906 2.264,1.2936 4.861,1.9095 5.8588,1.6436 0.18987,-0.0502 0.3896,-0.19924 0.4916,-0.33652 0.08,-0.12631 0.19183,-0.63172 0.19183,-0.63172 0,0 -0.18773,0.25547 -0.3423,0.33078 -0.63152,0.29811 -2.6253,-0.19924 -4.6712,-1.2002 1.769,-0.18828 3.2427,-0.19554 4.0303,0.0562 1.0003,0.3193 1.0011,0.64659 0.98778,0.71326 0.0135,-0.0549 0.0583,-0.27418 0.0528,-0.36753 -0.0227,-0.24006 -0.0967,-0.45443 -0.27795,-0.63172 -0.37027,-0.36479 -1.2845,-0.54862 -2.5303,-0.56509 -0.939,-0.0102 -2.065,0.072 -3.2872,0.24694 -0.56012,-0.32164 -1.1512,-0.67522 -1.6195,-1.113 -1.1877,-1.1093 -2.1832,-2.6494 -2.8014,-4.376 0.0422,-0.16553 0.0826,-0.32727 0.11944,-0.49045 0.17183,-0.77271 0.29517,-3.3274 0.29517,-3.3274 0,0 -0.48934,1.9192 -0.56622,2.2087 -0.0494,0.18357 -0.11086,0.3795 -0.18147,0.58347 -0.375,-1.3179 -0.56509,-2.5952 -0.56509,-3.564 0,-0.27379 0.0235,-0.80656 0.10105,-1.2278 0.0378,-0.30045 0.1466,-0.45647 0.2596,-0.53179 0.22357,0.0542 0.47383,0.39708 0.73509,0.97054 0.22435,0.4958 0.21017,1.07 0.21017,1.4254 0,0 0.24061,-0.87999 0.18492,-1.4001 -0.0339,-0.31223 -0.33096,-1.1155 -0.96248,-1.1061 h -0.0517 l -0.28139,-0.003 z m 0.21478,7.9791 c 0.65351,1.314 1.5548,2.5619 2.7371,3.5629 0.26357,0.22279 0.544,0.43475 0.83269,0.634 -2.1471,0.39931 -4.4021,0.96102 -6.4975,1.8389 0.37891,-0.67309 0.78861,-1.4064 1.2083,-2.1972 0.81274,-1.5368 1.3052,-2.7222 1.7194,-3.8385 z"/>
</svg>
