<svg xmlns="http://www.w3.org/2000/svg" width="48" height="48" version="1">
 <path style="opacity:0.2" d="M 10,5 C 8.892,5 8,5.892 8,7 v 36 c 0,1.108 0.892,2 2,2 h 28 c 1.108,0 2,-0.892 2,-2 V 17 L 29,16 28,5 Z"/>
 <path style="fill:#fe9700" d="M 10,4 C 8.892,4 8,4.892 8,6 v 36 c 0,1.108 0.892,2 2,2 h 28 c 1.108,0 2,-0.892 2,-2 V 16 L 29,15 28,4 Z"/>
 <path style="opacity:0.2;fill:#ffffff" d="M 10,4 C 8.892,4 8,4.892 8,6 V 7 C 8,5.892 8.892,5 10,5 h 18 l 11,11 h 1 L 28,4 Z"/>
 <path style="opacity:0.2" d="m 28,5 v 10 c 0,1.1046 0.89543,2 2,2 h 10 z"/>
 <path style="fill:#ffbd63" d="m 28,4 v 10 c 0,1.1046 0.89543,2 2,2 h 10 z"/>
 <path style="opacity:0.2" d="m 20.021421,20.992705 h -0.0192 c 0.0381,4.1874 -7.3e-4,7.375 0,11.562 -1.8438,-1.1725 -4.5316,-0.41497 -5.5172,1.5309 -1.1469,1.9742 -0.16651,4.7651 1.9602,5.5923 2.0774,0.95043 4.7614,-0.2976 5.3772,-2.4962 0.30759,-1.2005 0.13601,-2.4536 0.18418,-3.6809 0.005,-2.8362 0.01,-4.6724 0.0149,-7.5086 h 9 c -0.006,2.5208 -0.0128,4.0417 -0.0192,6.5625 -1.8438,-1.1725 -4.5316,-0.41497 -5.5172,1.5309 -1.1469,1.9742 -0.16651,4.7651 1.9602,5.5923 2.2491,1.0177 5.4228,-0.5127 5.5925,-3.0831 -0.0756,-2.33 -0.01,-4.6677 -0.0263,-7.001 0.003,-2.8672 0.0105,-5.7344 0.01,-8.6016 h -13 z"/>
 <path style="fill:#ffffff" d="m 20.021421,19.992705 h -0.0192 c 0.0381,4.1874 -7.3e-4,7.375 0,11.562 -1.8438,-1.1725 -4.5316,-0.41497 -5.5172,1.5309 -1.1469,1.9742 -0.16651,4.7651 1.9602,5.5923 2.0774,0.95043 4.7614,-0.2976 5.3772,-2.4962 0.30759,-1.2005 0.13601,-2.4536 0.18418,-3.6809 0.005,-2.8362 0.01,-4.6724 0.0149,-7.5086 h 9 c -0.006,2.5208 -0.0128,4.0417 -0.0192,6.5625 -1.8438,-1.1725 -4.5316,-0.41497 -5.5172,1.5309 -1.1469,1.9742 -0.16651,4.7651 1.9602,5.5923 2.2491,1.0177 5.4228,-0.5127 5.5925,-3.0831 -0.0756,-2.33 -0.01,-4.6677 -0.0263,-7.001 0.003,-2.8672 0.0105,-5.7344 0.01,-8.6016 h -13 z"/>
</svg>
