<svg xmlns="http://www.w3.org/2000/svg" width="48" height="48" version="1">
 <path style="opacity:0.2" d="M 10,5 C 8.892,5 8,5.892 8,7 v 36 c 0,1.108 0.892,2 2,2 h 28 c 1.108,0 2,-0.892 2,-2 V 17 L 29,16 28,5 Z"/>
 <path opacity=".1" transform="translate(-135.61,-237.72)" d="m163.22 242.45v11c0 1.1046 0.89543 2 2 2h10l-1-1-10-9z"/>
 <path fill="#e4e4e4" d="m10 4c-1.108 0-2 0.892-2 2v36c0 1.108 0.892 2 2 2h28c1.108 0 2-0.892 2-2v-26l-11-1-1-11z"/>
 <path fill="#fff" opacity=".2" d="m10 4c-1.108 0-2 0.892-2 2v1c0-1.108 0.892-2 2-2h18l11 11h1l-12-12z"/>
 <path style="opacity:0.2" d="m 28,5 v 10 c 0,1.1046 0.89543,2 2,2 h 10 z"/>
 <path fill="#fafafa" d="m28 4v10c0 1.1046 0.89543 2 2 2h10l-12-12z"/>
 <path style="fill:#ffa923" d="m29 26v2.5c0 1.385-1.115 2.5-2.5 2.5h-5s-2.5 0-2.5 2.5v4.375c0 1.731 1.951 3.125 4.375 3.125h1.25c2.424 0 4.375-1.394 4.375-3.125v-1.875h1.875c1.731 0 3.125-1.951 3.125-4.375v-1.25c0-2.424-1.394-4.375-3.125-4.375h-1.875zm-2 11a1 1 0 0 1 1 1 1 1 0 0 1 -1 1 1 1 0 0 1 -1 -1 1 1 0 0 1 1 -1z"/>
 <path style="fill:#3084e0" d="m23.375 21c-2.424 0-4.375 1.394-4.375 3.125v1.875h-1.875c-1.731 0-3.125 1.951-3.125 4.375v1.25c0 2.424 1.394 4.375 3.125 4.375h1.875v-2.5c0-1.385 1.115-2.5 2.5-2.5h5s2.5 0 2.5-2.5v-4.375c0-1.731-1.951-3.125-4.375-3.125h-1.25zm-2.375 2a1 1 0 0 1 1 1 1 1 0 0 1 -1 1 1 1 0 0 1 -1 -1 1 1 0 0 1 1 -1z"/>
</svg>
