<svg xmlns="http://www.w3.org/2000/svg" width="48" height="48" version="1">
 <path style="opacity:0.2" d="M 10,5 C 8.892,5 8,5.892 8,7 v 36 c 0,1.108 0.892,2 2,2 h 28 c 1.108,0 2,-0.892 2,-2 V 17 L 29,16 28,5 Z"/>
 <path style="fill:#fe9700" d="M 10,4 C 8.892,4 8,4.892 8,6 v 36 c 0,1.108 0.892,2 2,2 h 28 c 1.108,0 2,-0.892 2,-2 V 16 L 29,15 28,4 Z"/>
 <path style="opacity:0.2;fill:#ffffff" d="M 10,4 C 8.892,4 8,4.892 8,6 V 7 C 8,5.892 8.892,5 10,5 h 18 l 11,11 h 1 L 28,4 Z"/>
 <path style="opacity:0.2" d="m 28,5 v 10 c 0,1.1046 0.89543,2 2,2 h 10 z"/>
 <path style="fill:#ffbd63" d="m 28,4 v 10 c 0,1.1046 0.89543,2 2,2 h 10 z"/>
 <path style="opacity:0.2" d="m 13,27 v 8 h 0.931641 v -4.851562 c 0,-0.425771 -0.0085,-0.832282 -0.02344,-1.220704 -0.01497,-0.395892 -0.03225,-0.709846 -0.05469,-0.941406 h 0.04492 L 16.535156,35 h 0.830078 l 2.669922,-7.001953 h 0.04492 c -0.01496,0.239028 -0.0342,0.548734 -0.05664,0.929687 -0.01496,0.380952 -0.02148,0.765876 -0.02148,1.154297 V 35 H 21 v -8 h -1.480469 l -2.513672,6.554688 h -0.04492 L 14.492188,27 Z m 10,0 v 8 h 0.984375 v -3.015625 h 0.898437 c 0.77565,0.08646 1.395433,-0.118393 1.847657,-0.357422 0.459519,-0.239029 0.784967,-0.548734 0.974609,-0.929687 C 27.902013,30.308844 28,29.794225 28,29.353516 28,28.60655 27.76564,28.028018 27.298828,27.617188 26.832015,27.206357 26.089512,27 25.068359,27 Z m 8.367188,0 c -0.523161,0 -0.990129,0.08038 -1.404297,0.240234 -0.406903,0.159855 -0.749278,0.348423 -1.025391,0.566407 l 0.480469,0.654297 c 0.290644,-0.18892 0.584901,-0.345227 0.882812,-0.46875 0.297911,-0.123524 0.65669,-0.185547 1.078125,-0.185547 0.435968,0 0.780842,0.105689 1.035156,0.316406 0.254315,0.203451 0.382813,0.493255 0.382813,0.871094 0,0.443233 -0.167712,0.799512 -0.501953,1.068359 -0.326975,0.268846 -0.8098,0.404297 -1.449219,0.404297 h -0.763672 v 0.816406 h 0.751953 c 0.690282,0 1.223725,0.110141 1.601563,0.328125 0.385105,0.210717 0.578125,0.558092 0.578125,1.044922 0,0.479564 -0.156307,0.858653 -0.46875,1.134766 -0.305177,0.268846 -0.806359,0.402343 -1.503906,0.402343 -0.348774,0 -0.712006,-0.04367 -1.089844,-0.130859 -0.377839,-0.08719 -0.729665,-0.213739 -1.056641,-0.380859 v 0.892578 c 0.31971,0.159857 0.653179,0.269998 1.001953,0.328125 0.348774,0.06539 0.72591,0.09766 1.132813,0.09766 0.690281,0 1.253486,-0.09874 1.689453,-0.294922 0.443233,-0.196185 0.771705,-0.467633 0.982422,-0.816406 0.210718,-0.348774 0.316406,-0.753172 0.316406,-1.210938 0,-0.515894 -0.156307,-0.932243 -0.46875,-1.251953 -0.305177,-0.319709 -0.767145,-0.517183 -1.384766,-0.589843 v -0.04297 c 0.48683,-0.101726 0.875371,-0.306152 1.166016,-0.611328 0.297911,-0.312444 0.447266,-0.728793 0.447266,-1.251953 0,-0.559492 -0.199973,-1.02146 -0.59961,-1.384766 C 32.785364,27.181615 32.180993,27 31.367188,27 Z m -7.382813,0.863281 h 0.996094 c 0.685631,0 1.188832,0.126891 1.509765,0.38086 0.328227,0.253968 0.492188,0.638891 0.492188,1.154297 0,0.590103 -0.182178,1.107016 -0.546875,1.353515 -0.364697,0.246499 -0.92008,0.371094 -1.664063,0.371094 h -0.787109 z"/>
 <path style="fill:#ffffff" d="m 16.53436,34 -2.636745,-7.014006 h -0.04488 q 0.03366,0.34734 0.05611,0.941178 0.02244,0.582632 0.02244,1.221288 V 34 H 13 v -8 h 1.492285 l 2.468442,6.554622 h 0.04488 L 19.51893,26 H 21 v 8 h -0.9986 v -4.918768 q 0,-0.582632 0.02244,-1.15406 0.03366,-0.57143 0.0561,-0.929972 H 20.03506 L 17.364655,34 Z"/>
 <path style="fill:#ffffff" d="m 25.067834,26 c 1.021153,0 1.765135,0.205415 2.231948,0.616246 C 27.766594,27.027077 28,27.605976 28,28.352942 c 0,0.440709 -0.09847,0.955378 -0.295405,1.3438 -0.189642,0.380953 -0.514223,0.690943 -0.973742,0.929972 -0.452224,0.239029 -1.073366,0.445 -1.849015,0.358544 H 23.984682 V 34 H 23 v -8 z m -0.08752,0.862745 h -0.995628 v 3.259768 h 0.787747 c 0.743983,0 1.298323,-0.123249 1.66302,-0.369748 0.364697,-0.246499 0.547045,-0.764903 0.547045,-1.355006 0,-0.515406 -0.164114,-0.900093 -0.492341,-1.154061 -0.320933,-0.253969 -0.824216,-0.380953 -1.509847,-0.380953 z"/>
 <path style="fill:#ffffff" d="m 33.776834,27.929154 q 0,0.784741 -0.446867,1.253406 -0.435967,0.457765 -1.166212,0.610354 v 0.0436 q 0.92643,0.108991 1.384196,0.588555 0.468665,0.479565 0.468665,1.253406 0,0.686649 -0.316077,1.20981 -0.316076,0.52316 -0.980926,0.817438 -0.653951,0.294278 -1.689373,0.294278 -0.610354,0 -1.133515,-0.09809 -0.523161,-0.08719 -1.002725,-0.326976 v -0.893733 q 0.490463,0.250681 1.057221,0.381472 0.566757,0.13079 1.089918,0.13079 1.046321,0 1.504087,-0.40327 0.468665,-0.414169 0.468665,-1.133515 0,-0.730245 -0.577657,-1.046321 -0.566757,-0.326976 -1.60218,-0.326976 h -0.752043 v -0.817439 h 0.762943 q 0.959128,0 1.449591,-0.403269 0.501362,-0.40327 0.501362,-1.06812 0,-0.566758 -0.381471,-0.871935 -0.381471,-0.316076 -1.035422,-0.316076 -0.632153,0 -1.079019,0.185286 -0.446867,0.185286 -0.882834,0.468665 l -0.479564,-0.653951 q 0.414169,-0.326976 1.024523,-0.566758 0.621253,-0.239782 1.405994,-0.239782 1.220709,0 1.809265,0.54496 0.599455,0.544959 0.599455,1.384196 z"/>
</svg>
