<?xml version="1.0" encoding="UTF-8"?><svg width="59px" height="59px" stroke-width="1.4" viewBox="0 0 24 24" fill="none" xmlns="http://www.w3.org/2000/svg" color="#000000"><path d="M2 12C2 17.5228 6.47715 22 12 22C17.5228 22 22 17.5228 22 12C22 6.47715 17.5228 2 12 2C6.47715 2 2 6.47715 2 12Z" stroke="#000000" stroke-width="1.4" stroke-linecap="round" stroke-linejoin="round"></path><path d="M13 2.04932C13 2.04932 16 5.99994 16 11.9999C16 17.9999 13 21.9506 13 21.9506" stroke="#000000" stroke-width="1.4" stroke-linecap="round" stroke-linejoin="round"></path><path d="M11 21.9506C11 21.9506 8 17.9999 8 11.9999C8 5.99994 11 2.04932 11 2.04932" stroke="#000000" stroke-width="1.4" stroke-linecap="round" stroke-linejoin="round"></path><path d="M2.62964 15.5H21.3704" stroke="#000000" stroke-width="1.4" stroke-linecap="round" stroke-linejoin="round"></path><path d="M2.62964 8.5H21.3704" stroke="#000000" stroke-width="1.4" stroke-linecap="round" stroke-linejoin="round"></path></svg>