<svg xmlns="http://www.w3.org/2000/svg" xmlns:xlink="http://www.w3.org/1999/xlink" x="0px" y="0px" width="48px" height="48px" viewBox="0 0 48 48"><g transform="translate(0, 0)"><path fill="#DC5425" d="M24,0C10.74516,0,0,10.74517,0,24s10.74517,24,24,24s24-10.74517,24-24S37.25483,0,24,0z"></path>
<path fill="#FFFFFF" d="M27.20001,12H15.59998v24h4.80005v-7.19995h6.79999v-0.00006c4.63922,0,8.39996-3.7608,8.39996-8.40002
		C35.59998,15.7608,31.83923,12,27.20001,12z M27.20001,23.99994V24h-6.79999v-7.19995h6.79999v-0.00006
		c1.98822,0,3.59991,1.61176,3.59991,3.59998C30.79993,22.38812,29.18823,23.99988,27.20001,23.99994z"></path></g></svg>