<?xml version="1.0" encoding="utf-8"?>
<svg xmlns="http://www.w3.org/2000/svg" width="16" height="16" fill="currentColor" class="bi bi-search" viewBox="0 0 16 16">
  <path d="M 11.742 5.658 C 14.7 9.694 12.179 15.418 7.205 15.962 C 2.231 16.505 -1.466 11.46 0.55 6.881 C 2.226 3.076 6.993 1.8 10.345 4.26 L 10.344 4.26 C 10.373 4.22 10.406 4.182 10.442 4.145 L 14.292 0.295 C 14.836 -0.25 15.766 -0.001 15.966 0.743 C 16.058 1.088 15.96 1.456 15.707 1.709 L 11.857 5.559 C 11.821 5.595 11.783 5.629 11.742 5.659 L 11.742 5.658 Z M 12 9.502 C 12 5.268 7.417 2.622 3.75 4.739 C 2.048 5.721 1 7.537 1 9.502 C 1 13.736 5.583 16.382 9.25 14.265 C 10.952 13.283 12 11.467 12 9.502" style="transform-box: fill-box; transform-origin: 50% 50%; fill: rgb(255, 255, 255);" transform="matrix(-1, 0, 0, -1, 0, 0.000001)"/>
</svg>