<svg version="1.2" xmlns="http://www.w3.org/2000/svg" viewBox="0 0 16 16" width="16" height="16">
	<title>shared-outline-svg</title>
	<style>
		.s0 { fill: #424954 } 
	</style>
	<g id="Layer 1">
		<path id="Layer" class="s0" d="m15 14c0 0 1 0 1-1 0-1-1-4-5-4-4 0-5 3-5 4 0 1 1 1 1 1zm-8-1c0-0.3 0.2-1 0.8-1.7 0.5-0.7 1.5-1.3 3.2-1.3 1.7 0 2.7 0.6 3.2 1.3 0.6 0.7 0.8 1.4 0.8 1.7zm7-8c0 0.8-0.4 1.6-0.9 2.1-0.6 0.6-1.3 0.9-2.1 0.9-0.8 0-1.6-0.3-2.2-0.9-0.5-0.5-0.8-1.3-0.8-2.1 0-0.8 0.3-1.6 0.8-2.1 0.6-0.6 1.4-0.9 2.2-0.9 0.8 0 1.5 0.3 2.1 0.9 0.5 0.5 0.9 1.3 0.9 2.1zm-3 2c0.5 0 1-0.2 1.4-0.6 0.3-0.4 0.6-0.9 0.6-1.4 0-0.5-0.3-1-0.6-1.4-0.4-0.4-0.9-0.6-1.4-0.6-0.6 0-1.1 0.2-1.5 0.6-0.3 0.4-0.5 0.9-0.5 1.4 0 0.5 0.2 1 0.5 1.4 0.4 0.4 0.9 0.6 1.5 0.6zm-4.1 2.3q-0.2-0.1-0.3-0.1-0.2 0-0.3-0.1-0.2 0-0.3 0-0.2-0.1-0.3-0.1-0.1 0-0.2 0-0.1 0-0.2 0-0.1 0-0.2 0-0.1 0-0.1 0c-4 0-5 3-5 4q0 1 1 1h4.2q-0.1-0.1-0.1-0.2-0.1-0.2-0.1-0.3 0-0.1 0-0.2 0-0.2 0-0.3c0-1 0.3-2 1-2.9q0.4-0.4 0.9-0.8zm-2 0.7q-0.2 0.3-0.4 0.7-0.2 0.4-0.3 0.7-0.1 0.4-0.2 0.8 0 0.4 0 0.8h-3c0-0.3 0.1-1 0.7-1.7 0.6-0.7 1.5-1.3 3.2-1.3zm-3.4-4.5c0-0.8 0.3-1.6 0.8-2.1 0.6-0.6 1.4-0.9 2.2-0.9 0.8 0 1.5 0.3 2.1 0.9 0.5 0.5 0.9 1.3 0.9 2.1 0 0.8-0.4 1.6-0.9 2.1-0.6 0.6-1.3 0.9-2.1 0.9-0.8 0-1.6-0.3-2.2-0.9-0.5-0.5-0.8-1.3-0.8-2.1zm3-2c-0.6 0-1.1 0.2-1.5 0.6-0.3 0.4-0.5 0.9-0.5 1.4 0 0.5 0.2 1 0.5 1.4 0.4 0.4 0.9 0.6 1.5 0.6 0.5 0 1-0.2 1.4-0.6 0.3-0.4 0.6-0.9 0.6-1.4 0-0.5-0.3-1-0.6-1.4-0.4-0.4-0.9-0.6-1.4-0.6z"/>
	</g>
</svg>