<?xml version="1.0" encoding="utf-8"?><!-- Uploaded to: SVG Repo, www.svgrepo.com, Generator: SVG Repo Mixer Tools -->
<svg width="800px" height="800px" viewBox="0 0 48 48" xmlns="http://www.w3.org/2000/svg"><defs><style>.a{fill:none;stroke:#000000;stroke-linecap:round;stroke-linejoin:round;}</style></defs><path class="a" d="M40.5,5.5H7.5a2,2,0,0,0-2,2v33a2,2,0,0,0,2,2h33a2,2,0,0,0,2-2V7.5A2,2,0,0,0,40.5,5.5Z"/><line class="a" x1="5.5" y1="24" x2="42.5" y2="24"/><line class="a" x1="24" y1="5.5" x2="24" y2="42.5"/><line class="a" x1="24" y1="14.75" x2="42.5" y2="14.75"/><line class="a" x1="33.25" y1="5.5" x2="33.25" y2="42.5"/><line class="a" x1="37.875" y1="5.5" x2="37.875" y2="42.5"/><line class="a" x1="28.625" y1="24" x2="28.625" y2="42.5"/><line class="a" x1="19.375" y1="33.25" x2="19.375" y2="42.5"/><line class="a" x1="10.125" y1="33.25" x2="10.125" y2="42.5"/><line class="a" x1="14.75" y1="42.5" x2="14.75" y2="24"/><line class="a" x1="5.5" y1="33.25" x2="42.5" y2="33.25"/><line class="a" x1="33.25" y1="35.5625" x2="42.5" y2="35.5625"/><line class="a" x1="33.25" y1="40.1875" x2="42.5" y2="40.1875"/><line class="a" x1="24" y1="28.625" x2="42.5" y2="28.625"/><line class="a" x1="33.25" y1="19.375" x2="42.5" y2="19.375"/><line class="a" x1="33.25" y1="10.125" x2="42.5" y2="10.125"/><line class="a" x1="5.5" y1="37.875" x2="42.5" y2="37.875"/><line class="a" x1="40.1875" y1="33.25" x2="40.1875" y2="42.5"/><line class="a" x1="35.5625" y1="33.25" x2="35.5625" y2="42.5"/></svg>