<?xml version="1.0" encoding="utf-8"?><!-- Uploaded to: SVG Repo, www.svgrepo.com, Generator: SVG Repo Mixer Tools -->
<svg fill="#000000" width="800px" height="800px" viewBox="0 0 32 32" xmlns="http://www.w3.org/2000/svg">
    <path d="M20.86,11.09a2.85,2.85,0,0,1,3,1.25,1,1,0,0,0,1.59-1.21,4.83,4.83,0,0,0-5.13-2,3,3,0,0,0-2.11,2.14A3.23,3.23,0,0,0,19,14.38l4.27,4.26a1.17,1.17,0,0,1,.34.87,1.11,1.11,0,0,1-.41.81,2.74,2.74,0,0,1-4.1-.65,1,1,0,1,0-1.6,1.2,5,5,0,0,0,4,2.13,4.66,4.66,0,0,0,3-1.14,3.15,3.15,0,0,0,1.12-2.26,3.12,3.12,0,0,0-.92-2.37L20.46,13a1.19,1.19,0,0,1-.3-1.15A1,1,0,0,1,20.86,11.09Z"/>
    <path d="M16,0A16,16,0,1,0,32,16,16,16,0,0,0,16,0Zm0,30A14,14,0,1,1,30,16,14,14,0,0,1,16,30Z"/>
    <path d="M10.5,9C7.47,9,5,12.14,5,16s2.47,7,5.5,7S16,19.86,16,16,13.53,9,10.5,9Zm0,12C8.6,21,7,18.71,7,16s1.6-5,3.5-5S14,13.29,14,16,12.4,21,10.5,21Z"/>
</svg>