<?xml version="1.0" ?><!-- Uploaded to: SVG Repo, www.svgrepo.com, Generator: SVG Repo Mixer Tools -->
<svg fill="#000000" width="800px" height="800px" viewBox="0 0 35 35" data-name="Layer 2" id="f3cb8d82-36fc-45b3-81de-6922a15d3e7e" xmlns="http://www.w3.org/2000/svg"><path d="M17.5,16.7a2,2,0,1,1,2-2A2,2,0,0,1,17.5,16.7Zm0-2h0Z"/><path d="M28.559,34.75H6.441A4.2,4.2,0,0,1,2.25,30.559V4.442A4.2,4.2,0,0,1,6.441.25H28.559A4.2,4.2,0,0,1,32.75,4.442V30.559A4.2,4.2,0,0,1,28.559,34.75ZM6.441,2.75A1.694,1.694,0,0,0,4.75,4.442V30.559A1.693,1.693,0,0,0,6.441,32.25H28.559a1.693,1.693,0,0,0,1.691-1.691V4.442A1.694,1.694,0,0,0,28.559,2.75Z"/><path d="M17.46,23.445a8.75,8.75,0,1,1,8.75-8.75A8.759,8.759,0,0,1,17.46,23.445Zm0-15a6.25,6.25,0,1,0,6.25,6.25A6.257,6.257,0,0,0,17.46,8.445Z"/><path d="M8.2,7.45a1.251,1.251,0,0,0,0-2.5,1.251,1.251,0,0,0,0,2.5Z"/><path d="M26.8,7.45a1.251,1.251,0,0,0,0-2.5,1.251,1.251,0,0,0,0,2.5Z"/><path d="M8.2,29.67a1.251,1.251,0,0,0,0-2.5,1.251,1.251,0,0,0,0,2.5Z"/><path d="M26.8,29.67a1.251,1.251,0,0,0,0-2.5,1.251,1.251,0,0,0,0,2.5Z"/><path d="M10.46,24.31a1.251,1.251,0,0,1-.89-2.128l4.5-4.56a1.25,1.25,0,0,1,1.78,1.756l-4.5,4.56A1.246,1.246,0,0,1,10.46,24.31Z"/></svg>