<?xml version="1.0" encoding="iso-8859-1"?>
<!-- Uploaded to: SVG Repo, www.svgrepo.com, Generator: SVG Repo Mixer Tools -->
<!DOCTYPE svg PUBLIC "-//W3C//DTD SVG 1.1//EN" "http://www.w3.org/Graphics/SVG/1.1/DTD/svg11.dtd">
<svg fill="#000000" height="800px" width="800px" version="1.1" id="Capa_1" xmlns="http://www.w3.org/2000/svg" xmlns:xlink="http://www.w3.org/1999/xlink" 
	 viewBox="0 0 431.908 431.908" xml:space="preserve">
<g>
	<path d="M423.908,152.051c4.418,0,8-3.582,8-8s-3.582-8-8-8h-24.006v-31.936h24.006c4.418,0,8-3.582,8-8s-3.582-8-8-8h-24.006
		V71.996c0-22.056-17.944-40-40-40h-16.109V8c0-4.418-3.582-8-8-8s-8,3.582-8,8v23.996h-31.937V8c0-4.418-3.582-8-8-8s-8,3.582-8,8
		v23.996H247.92V8c0-4.418-3.582-8-8-8s-8,3.582-8,8v23.996h-31.935V8c0-4.418-3.582-8-8-8s-8,3.582-8,8v23.996h-31.936V8
		c0-4.418-3.582-8-8-8s-8,3.582-8,8v23.996h-31.936V8c0-4.418-3.582-8-8-8s-8,3.582-8,8v23.996H71.985c-22.056,0-40,17.944-40,40
		v16.119H8c-4.418,0-8,3.582-8,8s3.582,8,8,8h23.985v31.936H8c-4.418,0-8,3.582-8,8s3.582,8,8,8h23.985v31.936H8
		c-4.418,0-8,3.582-8,8s3.582,8,8,8h23.985v31.935H8c-4.418,0-8,3.582-8,8s3.582,8,8,8h23.985v31.936H8c-4.418,0-8,3.582-8,8
		s3.582,8,8,8h23.985v31.936H8c-4.418,0-8,3.582-8,8s3.582,8,8,8h23.985v16.119c0,22.056,17.944,40,40,40h16.128v23.995
		c0,4.418,3.582,8,8,8s8-3.582,8-8v-23.995h31.936v23.995c0,4.418,3.582,8,8,8s8-3.582,8-8v-23.995h31.936v23.995
		c0,4.418,3.582,8,8,8s8-3.582,8-8v-23.995h31.935v23.995c0,4.418,3.582,8,8,8s8-3.582,8-8v-23.995h31.936v23.995
		c0,4.418,3.582,8,8,8s8-3.582,8-8v-23.995h31.937v23.995c0,4.418,3.582,8,8,8s8-3.582,8-8v-23.995h16.109c22.056,0,40-17.944,40-40
		v-16.119h24.006c4.418,0,8-3.582,8-8s-3.582-8-8-8h-24.006v-31.936h24.006c4.418,0,8-3.582,8-8s-3.582-8-8-8h-24.006v-31.936
		h24.006c4.418,0,8-3.582,8-8s-3.582-8-8-8h-24.006v-31.935h24.006c4.418,0,8-3.582,8-8s-3.582-8-8-8h-24.006v-31.936H423.908z
		 M383.902,359.912c0,13.233-10.767,24-24,24H71.985c-13.233,0-24-10.767-24-24V71.996c0-13.234,10.767-24,24-24h287.917
		c13.233,0,24,10.766,24,24V359.912z"/>
	<path d="M343.777,72.121H88.11c-8.822,0-16,7.177-16,16v255.667c0,8.822,7.178,16,16,16h255.667c8.822,0,16-7.178,16-16V88.121
		C359.777,79.298,352.599,72.121,343.777,72.121z M88.11,343.787V88.121h255.667l0.002,255.667H88.11z"/>
</g>
</svg>