<?xml version="1.0" encoding="utf-8"?><!-- Uploaded to: SVG Repo, www.svgrepo.com, Generator: SVG Repo Mixer Tools -->
<svg width="800px" height="800px" viewBox="0 0 24 24" fill="none" xmlns="http://www.w3.org/2000/svg">
<path d="M14 12.5001C14 13.3285 13.3284 14.0001 12.5 14.0001C11.6716 14.0001 11 13.3285 11 12.5001C11 11.6717 11.6716 11.0001 12.5 11.0001C13.3284 11.0001 14 11.6717 14 12.5001Z" fill="#0F0F0F"/>
<path d="M16.5 10.0001C17.3284 10.0001 18 9.32854 18 8.50011C18 7.67169 17.3284 7.00011 16.5 7.00011C15.6716 7.00011 15 7.67169 15 8.50011C15 9.32854 15.6716 10.0001 16.5 10.0001Z" fill="#0F0F0F"/>
<path d="M13 6.50011C13 7.32854 12.3284 8.00011 11.5 8.00011C10.6716 8.00011 10 7.32854 10 6.50011C10 5.67169 10.6716 5.00011 11.5 5.00011C12.3284 5.00011 13 5.67169 13 6.50011Z" fill="#0F0F0F"/>
<path d="M7.50001 12.0001C8.32844 12.0001 9.00001 11.3285 9.00001 10.5001C9.00001 9.67169 8.32844 9.00011 7.50001 9.00011C6.67158 9.00011 6.00001 9.67169 6.00001 10.5001C6.00001 11.3285 6.67158 12.0001 7.50001 12.0001Z" fill="#0F0F0F"/>
<path d="M14 17.5001C14 18.3285 13.3284 19.0001 12.5 19.0001C11.6716 19.0001 11 18.3285 11 17.5001C11 16.6717 11.6716 16.0001 12.5 16.0001C13.3284 16.0001 14 16.6717 14 17.5001Z" fill="#0F0F0F"/>
<path d="M7.50001 17.0001C8.32844 17.0001 9.00001 16.3285 9.00001 15.5001C9.00001 14.6717 8.32844 14.0001 7.50001 14.0001C6.67158 14.0001 6.00001 14.6717 6.00001 15.5001C6.00001 16.3285 6.67158 17.0001 7.50001 17.0001Z" fill="#0F0F0F"/>
<path fill-rule="evenodd" clip-rule="evenodd" d="M11.5017 1.02215C15.4049 0.791746 19.5636 2.32444 21.8087 5.41131C22.5084 6.37324 22.8228 7.63628 22.6489 8.83154C22.471 10.054 21.7734 11.2315 20.4472 11.8945C19.6389 12.2987 18.7731 12.9466 18.2401 13.668C17.7158 14.3778 17.6139 14.9917 17.8944 15.5529C18.4231 16.6102 18.8894 17.9257 18.8106 19.1875C18.7699 19.8375 18.5828 20.4946 18.1664 21.0799C17.7488 21.6667 17.1448 22.1192 16.3714 22.4286C14.6095 23.1333 12.6279 23.1643 10.8081 22.8207C8.98579 22.4765 7.24486 21.7421 5.92656 20.8194C4.00568 19.4748 2.47455 17.6889 1.71371 15.4464C0.9504 13.1965 0.995912 10.5851 2.06024 7.65803C3.64355 3.30372 7.56248 1.25469 11.5017 1.02215ZM11.6196 3.01868C8.26589 3.21665 5.18483 4.9176 3.93984 8.34149C3.00414 10.9148 3.01388 13.0536 3.60768 14.8038C4.20395 16.5613 5.42282 18.0255 7.07347 19.1809C8.14405 19.9303 9.6169 20.5604 11.1792 20.8554C12.7442 21.151 14.3181 21.0959 15.6286 20.5716C16.308 20.2999 16.7678 19.8099 16.8145 19.0627C16.8606 18.3245 16.5769 17.3901 16.1056 16.4473C15.3639 14.9639 15.8542 13.5318 16.6315 12.4796C17.4002 11.4391 18.5455 10.6093 19.5528 10.1057C20.2266 9.76878 20.5747 9.19623 20.6697 8.54355C20.7686 7.86365 20.5831 7.12638 20.1913 6.58769C18.4364 4.17486 15.0093 2.81858 11.6196 3.01868Z" fill="#0F0F0F"/>
</svg>