<?xml version="1.0" encoding="UTF-8" standalone="no"?>
<!-- Uploaded to: SVG Repo, www.svgrepo.com, Generator: SVG Repo Mixer Tools -->
<svg width="800px" height="800px" viewBox="0 0 32 32" version="1.1" xmlns="http://www.w3.org/2000/svg" xmlns:xlink="http://www.w3.org/1999/xlink" xmlns:sketch="http://www.bohemiancoding.com/sketch/ns">
    
    <title>browser</title>
    <desc>Created with Sketch Beta.</desc>
    <defs>

</defs>
    <g id="Page-1" stroke="none" stroke-width="1" fill="none" fill-rule="evenodd" sketch:type="MSPage">
        <g id="Icon-Set" sketch:type="MSLayerGroup" transform="translate(-256.000000, -671.000000)" fill="#000000">
            <path d="M265,675 C264.448,675 264,675.448 264,676 C264,676.553 264.448,677 265,677 C265.552,677 266,676.553 266,676 C266,675.448 265.552,675 265,675 L265,675 Z M269,675 C268.448,675 268,675.448 268,676 C268,676.553 268.448,677 269,677 C269.552,677 270,676.553 270,676 C270,675.448 269.552,675 269,675 L269,675 Z M286,679 L258,679 L258,675 C258,673.896 258.896,673 260,673 L284,673 C285.104,673 286,673.896 286,675 L286,679 L286,679 Z M286,699 C286,700.104 285.104,701 284,701 L260,701 C258.896,701 258,700.104 258,699 L258,681 L286,681 L286,699 L286,699 Z M284,671 L260,671 C257.791,671 256,672.791 256,675 L256,699 C256,701.209 257.791,703 260,703 L284,703 C286.209,703 288,701.209 288,699 L288,675 C288,672.791 286.209,671 284,671 L284,671 Z M261,675 C260.448,675 260,675.448 260,676 C260,676.553 260.448,677 261,677 C261.552,677 262,676.553 262,676 C262,675.448 261.552,675 261,675 L261,675 Z" id="browser" sketch:type="MSShapeGroup">

</path>
        </g>
    </g>
</svg>