<svg xmlns="http://www.w3.org/2000/svg" width="48" height="48" version="1">
 <rect style="opacity:0.2" width="30" height="35" x="9" y="10" rx="2" ry="2"/>
 <rect style="fill:#8e8e8e" width="30" height="35" x="9" y="9" rx="2" ry="2"/>
 <rect style="fill:#9f9f9f" width="12" height="4" x="18" y="4"/>
 <rect style="opacity:0.2" width="36" height="8" x="6" y="7" rx="2" ry="2"/>
 <rect style="fill:#9f9f9f" width="36" height="8" x="6" y="6" rx="2" ry="2"/>
 <path style="opacity:0.2;fill:#ffffff" d="M 8,6 C 6.892,6 6,6.892 6,8 V 9 C 6,7.892 6.892,7 8,7 h 32 c 1.108,0 2,0.892 2,2 V 8 C 42,6.892 41.108,6 40,6 Z"/>
 <path style="opacity:0.3;fill:none;stroke:#000000;stroke-width:4;stroke-linecap:round" d="M 32,21 V 37 M 24,21 V 37 M 16,21 V 37"/>
</svg>
