<?xml version="1.0" encoding="utf-8"?>
<svg id="Capa_1" enable-background="new 0 0 512.002 512.002" height="512" viewBox="0 0 512.002 512.002" width="512" xmlns="http://www.w3.org/2000/svg">
  <rect rx="35" ry="35" x="1" y="1" width="510" height="510" style="stroke: rgb(0, 0, 0); fill: rgb(31, 25, 82);"/>
  <path d="M 253.546 181.244 L 231.26 181.244 C 230.532 151.889 205.817 128.229 175.56 128.229 C 145.303 128.229 120.587 151.889 119.859 181.244 L 97.573 181.244 C 98.301 139.903 133.001 106.49 175.56 106.49 C 218.119 106.49 252.818 139.903 253.546 181.244 Z" fill="#fed941" style=""/>
  <path d="M 253.546 181.244 L 231.26 181.244 C 231.23 180.026 231.156 178.816 231.037 177.621 C 228.474 149.969 204.561 128.229 175.56 128.229 L 175.56 106.49 C 216.863 106.49 250.768 137.969 253.397 177.621 C 253.472 178.816 253.524 180.026 253.546 181.244 Z" fill="#fcbe29" style=""/>
  <path d="M 98.613 195.737 C 117.837 311.191 116.609 304.498 117.207 306.005 C 120.974 301.345 125.297 295.997 130.245 289.867 C 147.203 268.868 176.623 264.379 198.938 276.824 C 214.62 285.559 220.716 290 232.76 291.012 L 252.298 195.737 L 98.613 195.737 Z" fill="#81e885" style=""/>
  <path d="M 175.56 195.737 L 175.56 270.048 C 183.657 270.519 191.672 272.773 198.938 276.824 C 214.62 285.563 220.719 289.997 232.76 291.012 L 251.555 199.36 L 252.298 195.737 L 175.56 195.737 Z" fill="#5dc983" style=""/>
  <path d="M 378.578 98.266 L 352.288 212.078 L 330.552 207.303 L 356.842 93.484 L 378.578 98.266 Z" fill="#30d9f6" style=""/>
  <path d="M 378.578 98.266 L 377.761 101.802 L 353.105 208.541 L 352.288 212.077 L 342.096 209.838 L 342.913 206.302 L 367.569 99.556 L 368.386 96.019 L 378.578 98.266 Z" fill="#19c0ef" style=""/>
  <path d="M 388.636 104.19 L 345.154 94.631 C 339.15 93.311 335.381 87.494 336.734 81.637 C 338.087 75.781 344.051 72.106 350.054 73.424 L 393.536 82.982 C 399.54 84.302 403.309 90.119 401.956 95.976 C 400.604 101.83 394.643 105.509 388.636 104.19 Z" fill="#19c0ef" style=""/>
  <path d="M 401.956 95.976 C 400.604 101.831 394.639 105.512 388.637 104.193 L 377.761 101.802 L 367.569 99.556 L 368.386 96.019 L 372.464 78.353 L 393.532 82.983 C 399.542 84.302 403.308 90.121 401.956 95.976 Z" fill="#159be1" style=""/>
  <path d="M 367.599 211.729 L 316.868 200.577 C 294.835 195.737 272.994 209.208 268.032 230.693 L 254.943 287.324 C 259.358 285.401 261.345 283.897 271.917 277.019 C 292.215 263.825 319.014 265.753 337.082 281.302 C 358.66 299.858 374.527 313.376 383.674 321.237 C 384.868 319.21 383.717 323.257 398.472 259.374 C 403.427 237.932 389.573 216.563 367.599 211.729 Z" fill="#30d9f6" style=""/>
  <path d="M 367.599 211.729 L 353.105 208.541 L 342.913 206.302 L 342.096 209.838 L 327.149 274.541 C 330.663 276.396 333.999 278.65 337.082 281.302 C 358.662 299.86 374.53 313.374 383.674 321.237 C 384.87 319.208 383.719 323.258 398.472 259.374 C 403.427 237.932 389.573 216.563 367.599 211.729 Z" fill="#19c0ef" style=""/>
  <path d="M 339.54 278.585 C 320.092 261.86 291.44 259.976 269.859 274.005 L 259.489 280.752 C 246.392 289.266 229.759 289.831 216.09 282.208 L 200.78 273.679 C 176.161 259.955 144.901 265.86 127.325 287.629 C 86.801 337.834 88.515 335.044 87.79 338.375 L 405.812 338.375 C 404.804 333.637 407.466 336.988 339.54 278.585 Z" fill="#fecec0" style=""/>
  <path d="M 404.185 334.751 C 400.731 330.65 388.392 320.592 339.54 278.584 C 320.092 261.86 291.44 259.976 269.859 274.005 L 259.489 280.751 C 256.436 282.729 253.197 284.28 249.846 285.403 L 249.846 338.374 L 405.812 338.374 C 405.53 337.041 405.537 336.352 404.185 334.751 Z" fill="#feb99e" style=""/>
  <path d="M 428.878 444.172 L 70.815 444.172 C 64.661 444.172 59.672 439.305 59.672 433.302 L 59.672 345.621 C 59.672 339.618 64.661 334.752 70.815 334.752 L 428.878 334.752 C 435.032 334.752 440.021 339.618 440.021 345.621 L 440.021 433.302 C 440.021 439.305 435.032 444.172 428.878 444.172 Z" fill="#fd6328" style=""/>
  <path d="M 428.878 334.751 L 249.846 334.751 L 249.846 444.171 L 428.878 444.171 C 435.029 444.171 440.021 439.309 440.021 433.302 L 440.021 345.621 C 440.021 339.621 435.029 334.751 428.878 334.751 Z" fill="#ee3616" style=""/>
  <path d="M 253.561 177.621 L 97.558 177.621 C 91.404 177.621 86.415 182.488 86.415 188.491 C 86.415 194.494 91.404 199.361 97.558 199.361 L 253.561 199.361 C 259.715 199.361 264.704 194.494 264.704 188.491 C 264.704 182.488 259.715 177.621 253.561 177.621 Z" fill="#5dc983" style=""/>
  <path d="M 264.704 188.49 C 264.704 194.497 259.712 199.36 253.561 199.36 L 175.56 199.36 L 175.56 177.621 L 253.561 177.621 C 259.712 177.621 264.704 182.49 264.704 188.49 Z" fill="#0eab61" style=""/>
</svg>