<svg xmlns="http://www.w3.org/2000/svg" width="180" height="50" viewBox="0,0,180,50"><rect width="100%" height="100%" fill="#f0f0f0"/><path fill="#d75093" d="M52.16 30.81L52.15 30.80L52.24 30.89Q52.33 29.46 51.51 28.54L51.42 28.46L51.46 28.50Q50.63 27.57 49.19 27.61L49.33 27.75L49.26 27.68Q46.88 27.71 46.05 29.84L46.02 29.82L46.16 29.95Q45.78 30.64 45.75 31.33L45.70 31.28L45.73 31.32Q45.55 36.20 44.64 40.54L44.57 40.47L44.64 40.54Q43.00 41.11 41.13 42.10L41.13 42.09L41.17 42.13Q43.33 35.04 43.06 27.73L43.02 27.69L43.12 27.79Q42.85 20.43 40.30 13.62L40.20 13.53L40.27 13.59Q42.07 14.93 44.08 15.62L44.02 15.56L44.12 15.65Q45.56 21.44 45.75 27.30L45.64 27.19L45.79 27.34Q47.11 25.19 49.81 25.27L49.71 25.17L49.82 25.27Q54.96 25.43 55.07 30.80L55.08 30.80L55.03 30.75Q55.20 36.48 56.57 41.13L56.59 41.14L56.45 41.01Q54.65 40.23 52.90 40.04L52.94 40.08L52.98 40.12Q52.31 36.72 52.20 30.85ZM52.49 40.28L52.62 40.41L52.47 40.26Q53.67 40.54 54.77 40.81L54.82 40.86L54.80 40.84Q54.81 40.97 55.35 42.95L55.34 42.94L55.27 42.87Q58.27 43.85 60.28 45.30L60.22 45.23L60.27 45.29Q57.57 39.50 57.04 33.18L56.95 33.09L56.97 33.12Q56.75 29.50 55.34 27.94L55.41 28.01L55.39 27.99Q55.31 27.83 54.66 27.38L54.65 27.37L54.70 27.42Q54.36 26.81 53.71 26.05L53.75 26.09L53.89 26.15L53.71 25.97Q52.93 25.19 49.81 24.92L49.78 24.90L49.74 24.86Q49.08 24.91 47.67 25.25L47.67 25.25L47.73 25.32Q47.44 20.39 47.10 17.87L47.08 17.85L47.09 17.87Q46.32 17.74 44.84 17.44L44.80 17.40L44.96 17.56Q44.74 16.77 44.48 15.29L44.51 15.32L44.51 15.32Q41.46 14.26 39.60 12.69L39.57 12.66L39.58 12.67Q42.50 19.79 42.77 27.59L42.84 27.66L42.73 27.55Q43.08 35.40 40.53 42.75L40.59 42.81L40.55 42.77Q41.49 42.18 42.63 41.69L42.58 41.63L41.86 43.93L41.89 43.95Q44.94 42.55 46.92 42.36L46.98 42.42L47.03 42.47Q47.63 37.10 47.82 33.14L47.68 32.99L47.83 33.15Q47.84 31.21 49.78 30.11L49.74 30.07L49.88 30.20Q50.40 29.96 50.93 30.00L50.74 29.82L50.88 29.95Q50.91 29.83 51.25 29.87L51.30 29.92L51.83 30.11L51.80 30.08Q51.77 30.42 51.89 30.88L52.00 31.00L51.93 30.93Q52.00 36.86 52.50 40.29Z"/><path fill="#eb8664" d="M117.56 41.14L117.50 41.07L117.50 41.08Q120.71 36.86 127.41 28.94L127.30 28.83L127.48 29.01Q121.56 29.22 117.79 27.85L117.71 27.77L117.64 27.70Q117.06 26.36 116.30 24.95L116.22 24.87L116.32 24.97Q120.43 26.50 124.89 26.53L124.82 26.47L124.87 26.51Q129.36 26.59 133.55 25.53L133.46 25.44L133.53 25.50Q132.98 26.02 132.71 26.55L132.86 26.70L132.81 26.65Q130.28 28.87 127.46 32.49L127.40 32.43L122.60 38.75L122.58 38.73Q124.79 38.50 127.03 38.57L127.09 38.63L127.10 38.65Q129.19 38.60 131.43 38.98L131.50 39.04L131.46 39.00Q131.71 39.72 132.44 41.73L132.36 41.66L132.40 41.70Q128.57 40.76 124.58 40.88L124.68 40.98L124.68 40.98Q120.74 41.12 117.09 42.30L116.94 42.15L117.09 42.30Q117.12 42.11 117.58 41.15ZM116.39 42.78L116.41 42.80L116.51 42.90Q117.30 42.58 118.90 42.17L118.72 41.99L118.80 42.07Q118.61 42.33 118.19 42.75L118.10 42.66L118.22 42.78Q117.88 43.24 117.27 44.39L117.36 44.48L117.38 44.50Q121.97 43.03 126.96 43.18L126.99 43.22L127.04 43.26Q131.88 43.31 136.45 45.18L136.53 45.25L136.52 45.25Q135.05 43.36 134.14 41.30L134.26 41.42L134.07 41.24Q133.33 40.96 132.27 40.73L132.29 40.75L132.25 40.71Q132.19 40.11 131.81 38.67L131.71 38.57L131.82 38.68Q130.23 38.31 126.65 38.20L126.61 38.15L126.77 38.31Q129.07 34.91 134.10 28.55L134.05 28.50L133.95 28.40Q134.24 27.70 134.92 26.37L135.10 26.54L132.79 27.27L132.68 27.16Q132.70 27.04 132.86 26.93L133.00 27.07L133.05 26.74L133.06 26.75Q133.50 25.66 134.07 24.71L134.08 24.72L134.16 24.80Q129.54 26.20 124.82 26.12L124.89 26.19L124.76 26.06Q120.03 26.05 115.53 24.22L115.49 24.18L115.47 24.16Q116.70 26.07 117.50 28.13L117.45 28.07L117.58 28.21Q118.37 28.47 119.44 28.74L119.30 28.60L119.39 28.68Q119.62 29.41 119.92 30.86L119.91 30.85L119.82 30.75Q121.59 31.19 124.90 31.34L124.88 31.32L124.81 31.25Q122.44 34.59 117.26 41.03L117.19 40.95L117.13 40.89Q117.02 41.62 116.44 42.83Z"/><path fill="#2e89e5" d="M153.89 30.83L153.91 30.85L153.98 30.92Q154.07 29.49 153.25 28.57L153.22 28.54L153.30 28.62Q152.45 27.67 151.00 27.71L150.93 27.64L151.01 27.72Q148.53 27.64 147.70 29.78L147.79 29.87L147.72 29.80Q147.62 30.77 147.59 31.46L147.44 31.31L147.39 31.26Q147.33 36.26 146.41 40.60L146.29 40.47L146.33 40.52Q144.61 41.01 142.75 42.00L142.89 42.13L142.81 42.06Q145.06 35.06 144.80 27.75L144.80 27.76L144.85 27.81Q144.56 20.43 142.01 13.62L142.05 13.66L142.05 13.66Q143.71 14.86 145.73 15.55L145.73 15.55L145.80 15.62Q147.20 21.36 147.39 27.22L147.49 27.32L147.33 27.16Q148.73 25.10 151.44 25.18L151.59 25.33L151.45 25.19Q156.50 25.26 156.62 30.63L156.71 30.72L156.74 30.75Q156.91 36.47 158.28 41.12L158.23 41.07L158.20 41.04Q156.40 40.27 154.65 40.07L154.68 40.11L154.61 40.04Q154.11 36.80 154.00 30.94ZM154.24 40.31L154.29 40.36L154.20 40.28Q155.35 40.51 156.45 40.78L156.36 40.69L156.44 40.77Q156.56 41.00 157.09 42.98L157.06 42.95L157.08 42.97Q160.01 43.87 162.02 45.32L162.08 45.38L162.06 45.36Q159.25 39.47 158.72 33.15L158.67 33.09L158.72 33.15Q158.39 29.43 156.98 27.87L157.08 27.96L157.10 27.99Q157.08 27.89 156.43 27.43L156.33 27.34L156.44 27.44Q156.04 26.77 155.39 26.01L155.49 26.11L155.49 26.03L155.59 26.14Q154.62 25.17 151.50 24.90L151.44 24.84L151.50 24.90Q150.78 24.90 149.37 25.24L149.31 25.18L149.39 25.26Q149.07 20.30 148.73 17.79L148.80 17.85L148.77 17.83Q148.03 17.74 146.55 17.43L146.58 17.47L146.59 17.47Q146.49 16.80 146.22 15.32L146.11 15.20L146.06 15.16Q143.10 14.18 141.23 12.62L141.32 12.70L141.39 12.77Q144.25 19.82 144.52 27.63L144.51 27.61L144.53 27.64Q144.92 35.52 142.37 42.87L142.29 42.80L142.28 42.79Q143.20 42.18 144.34 41.69L144.40 41.75L143.64 43.99L143.64 44.00Q146.67 42.57 148.65 42.38L148.72 42.45L148.63 42.36Q149.26 37.01 149.45 33.05L149.39 32.99L149.49 33.09Q149.68 31.34 151.62 30.24L151.48 30.10L151.61 30.23Q151.94 29.80 152.48 29.83L152.58 29.93L152.54 29.90Q152.70 29.91 153.05 29.95L152.95 29.85L153.57 30.13L153.53 30.09Q153.55 30.48 153.66 30.94L153.55 30.84L153.64 30.92Q153.68 36.83 154.18 40.26Z"/><path d="M16 4 C90 30,89 26,161 28" stroke="#6280d9" fill="none"/><path fill="#653be1" d="M66.75 41.18L66.61 41.04L66.62 41.05Q69.82 36.83 76.52 28.91L76.61 29.00L76.62 29.01Q70.54 29.06 66.77 27.69L66.86 27.77L66.89 27.80Q66.27 26.42 65.51 25.02L65.41 24.92L65.48 24.99Q69.56 26.48 74.02 26.52L73.92 26.43L73.96 26.46Q78.41 26.49 82.59 25.43L82.58 25.41L82.64 25.47Q82.12 26.02 81.86 26.56L81.97 26.67L81.86 26.55Q79.43 28.89 76.61 32.50L76.57 32.46L71.61 38.62L71.64 38.65Q73.97 38.54 76.22 38.62L76.16 38.56L76.22 38.62Q78.30 38.57 80.55 38.95L80.63 39.04L80.58 38.98Q80.71 39.57 81.43 41.59L81.39 41.54L81.41 41.56Q77.65 40.70 73.66 40.82L73.85 41.01L73.83 40.99Q69.86 41.09 66.20 42.27L66.17 42.24L66.06 42.13Q66.23 42.07 66.69 41.12ZM65.66 42.91L65.52 42.77L65.58 42.83Q66.46 42.60 68.06 42.18L68.04 42.16L68.00 42.12Q67.71 42.29 67.29 42.71L67.28 42.70L67.23 42.65Q67.14 43.36 66.53 44.50L66.44 44.41L66.37 44.34Q71.12 43.04 76.11 43.19L76.09 43.17L76.05 43.14Q81.19 43.47 85.75 45.34L85.66 45.24L85.62 45.21Q84.32 43.48 83.40 41.42L83.34 41.37L83.28 41.30Q82.58 41.06 81.51 40.83L81.51 40.83L81.52 40.83Q81.36 40.14 80.98 38.70L80.93 38.64L80.94 38.66Q79.30 38.23 75.72 38.12L75.73 38.13L75.89 38.29Q78.10 34.79 83.12 28.43L83.25 28.55L83.13 28.44Q83.51 27.83 84.19 26.49L84.09 26.39L81.84 27.18L81.93 27.27Q81.90 27.09 82.05 26.98L82.05 26.98L82.27 26.81L82.38 26.92Q82.64 25.66 83.21 24.71L83.34 24.84L83.39 24.89Q78.60 26.11 73.88 26.04L73.98 26.14L73.96 26.12Q69.18 26.06 64.69 24.24L64.73 24.28L64.68 24.23Q65.83 26.06 66.62 28.11L66.61 28.10L66.73 28.21Q67.50 28.45 68.56 28.72L68.61 28.76L68.51 28.67Q68.70 29.35 69.01 30.80L69.01 30.80L69.13 30.92Q70.59 31.05 73.90 31.20L73.91 31.21L73.98 31.28Q71.48 34.49 66.30 40.93L66.31 40.93L66.45 41.07Q66.20 41.66 65.63 42.88Z"/><path fill="#e8c049" d="M98.06 29.80L98.16 29.90L98.12 29.85Q97.94 29.91 97.64 29.91L97.65 29.92L97.57 29.84Q96.14 29.74 94.69 30.58L94.78 30.67L94.70 30.59Q93.49 31.82 93.49 33.72L93.36 33.59L93.44 33.67Q93.48 37.13 95.00 38.46L94.98 38.45L94.96 38.42Q95.90 39.59 98.18 39.59L98.19 39.60L98.14 39.55Q98.42 39.60 98.73 39.60L98.71 39.58L98.80 39.67Q100.45 39.61 101.59 37.97L101.68 38.06L101.66 38.04Q102.62 36.46 102.55 34.67L102.68 34.80L102.67 34.78Q102.63 34.21 102.63 33.79L102.58 33.75L102.57 33.74Q102.60 31.98 101.23 30.82L101.37 30.96L101.39 30.98Q99.96 29.76 98.17 29.91ZM102.53 39.94L102.57 39.98L102.62 40.03Q101.54 41.88 97.81 42.00L97.99 42.18L97.82 42.01Q94.46 42.14 92.86 40.54L92.95 40.64L92.85 40.54Q91.45 38.84 90.65 34.04L90.62 34.01L90.58 33.97Q90.33 32.27 90.33 31.01L90.34 31.02L90.24 30.92Q90.43 29.32 91.15 28.26L91.14 28.24L91.13 28.23Q92.51 26.87 95.47 26.87L95.43 26.82L95.37 26.76Q101.67 26.75 103.58 29.34L103.61 29.37L103.61 29.37Q103.90 28.67 104.32 27.07L104.16 26.92L104.18 26.94Q105.43 26.62 107.87 25.82L107.98 25.93L107.95 25.91Q105.48 31.50 105.25 37.82L105.17 37.75L105.19 37.76Q105.00 43.97 107.13 49.79L107.21 49.88L107.21 49.87Q105.39 49.16 103.61 48.90L103.75 49.04L103.59 48.88Q102.83 45.08 102.72 40.13ZM103.46 49.32L103.49 49.35L103.33 49.19Q104.16 49.45 105.57 49.75L105.56 49.75L105.55 49.74Q105.75 50.43 106.32 51.84L106.27 51.79L106.25 51.76Q108.85 52.50 111.13 53.79L111.19 53.85L111.26 53.92Q107.09 47.21 107.09 38.68L107.06 38.65L107.17 38.76Q107.22 32.45 109.70 26.66L109.64 26.60L109.58 26.55Q108.91 26.86 107.54 27.51L107.60 27.57L107.55 27.53Q107.97 26.84 108.62 25.28L108.44 25.11L108.56 25.22Q107.09 25.84 103.89 26.72L103.76 26.58L103.90 26.73Q103.79 27.30 103.48 28.48L103.31 28.31L103.42 28.42Q101.32 26.43 95.19 26.28L95.17 26.26L95.18 26.27Q92.11 26.32 90.74 27.81L90.77 27.84L90.77 27.84Q89.87 28.84 89.91 30.74L90.00 30.84L90.04 30.88Q89.98 33.71 90.97 37.48L90.96 37.47L91.00 37.50Q91.69 39.95 92.60 40.90L92.68 40.98L93.01 41.31L93.04 41.34Q94.09 43.99 99.54 44.22L99.64 44.32L99.70 44.38Q100.66 44.35 102.49 44.05L102.46 44.02L102.57 44.13Q102.81 46.99 103.42 49.28ZM99.94 32.10L99.99 32.15L100.06 32.22Q101.18 32.27 102.02 32.57L101.96 32.52L101.88 32.44Q102.20 33.10 102.32 33.71L102.24 33.63L102.27 33.67Q102.41 34.26 102.33 34.87L102.28 34.81L102.30 34.84Q102.18 36.62 101.15 37.91L101.31 38.08L101.17 37.93Q100.04 39.39 98.18 39.20L98.30 39.33L98.27 39.30Q96.82 39.14 95.87 38.73L95.89 38.75L96.06 38.92Q95.54 37.94 95.54 36.72L95.68 36.86L95.67 36.84Q95.54 36.41 95.54 36.11L95.67 36.24L95.54 36.11Q95.63 34.45 96.96 33.29L96.91 33.24L97.00 33.33Q98.17 32.00 99.92 32.08Z"/><path d="M9 43 C98 22,79 8,161 21" stroke="#90e3ba" fill="none"/><path fill="#20e320" d="M18.62 32.98L18.63 32.99L18.50 32.86Q21.67 32.57 24.87 32.68L24.86 32.67L24.93 32.74Q24.85 30.15 24.85 27.76L24.85 27.75L24.89 27.80Q24.75 25.17 24.94 22.62L25.00 22.68L25.09 22.77Q23.77 24.38 18.55 32.91ZM28.46 40.27L28.56 40.37L28.56 40.37Q26.87 40.05 25.08 39.97L25.05 39.95L24.96 39.86Q24.79 37.51 24.67 35.04L24.70 35.07L24.71 35.08Q19.47 34.97 14.75 36.38L14.61 36.24L14.75 36.38Q14.85 35.87 15.04 34.88L14.89 34.73L15.07 34.91Q16.74 31.64 20.32 25.36L20.38 25.41L20.37 25.41Q23.31 20.58 26.74 16.70L26.60 16.56L26.75 16.71Q27.54 16.43 29.21 16.17L29.24 16.19L29.28 16.23Q27.25 22.54 27.25 29.58L27.31 29.64L27.34 29.67Q27.28 31.10 27.36 32.58L27.35 32.58L28.75 32.80L28.60 32.64Q29.26 32.73 29.87 32.85L29.85 32.82L29.90 32.88Q29.97 33.83 30.24 35.77L30.33 35.85L30.25 35.78Q29.12 35.61 27.64 35.41L27.54 35.31L27.63 35.41Q27.75 37.31 28.43 40.25ZM30.13 32.46L30.24 32.57L30.12 32.45Q30.03 32.47 29.84 32.47L29.70 32.33L29.47 32.49L29.46 32.48Q29.25 30.90 29.25 29.49L29.26 29.50L29.37 29.61Q29.22 23.06 31.27 17.05L31.38 17.15L31.30 17.07Q30.59 17.39 29.14 17.77L29.05 17.68L29.20 17.83Q29.28 16.92 29.74 15.51L29.76 15.53L29.79 15.57Q28.46 15.90 26.40 16.13L26.55 16.28L26.43 16.16Q22.47 20.46 17.25 29.82L17.29 29.87L19.35 26.17L19.45 26.27Q19.09 27.36 18.82 27.93L18.69 27.79L14.25 36.84L14.26 36.84Q14.97 36.76 16.11 36.38L16.06 36.33L15.94 36.58L15.97 36.61Q15.85 37.30 15.55 38.55L15.57 38.57L15.53 38.54Q19.67 37.23 24.51 37.42L24.41 37.33L24.47 37.39Q24.49 38.32 24.68 40.30L24.70 40.32L24.69 40.31Q25.68 40.23 26.74 40.34L26.75 40.35L26.79 40.39Q27.04 41.17 27.31 42.54L27.25 42.49L27.25 42.49Q29.10 42.66 32.10 43.57L32.06 43.53L32.24 43.70Q31.21 41.53 30.30 38.26L30.17 38.13L31.72 38.70L31.60 38.58Q32.32 38.84 33.00 39.18L33.09 39.27L33.14 39.32Q32.27 36.74 32.12 35.06L32.19 35.13L32.02 34.96Q31.62 34.98 30.47 34.75L30.36 34.63L30.36 34.63Q30.13 33.34 30.13 32.46ZM22.21 32.38L22.13 32.30L22.16 32.33Q22.93 31.05 24.49 28.50L24.42 28.42L24.45 28.45Q24.44 29.40 24.40 30.35L24.46 30.41L24.42 30.37Q24.47 31.41 24.51 32.36L24.51 32.36L24.58 32.43Q24.01 32.40 23.44 32.40L23.38 32.34L23.31 32.27Q22.83 32.40 22.22 32.40Z"/></svg>