<svg xmlns="http://www.w3.org/2000/svg" width="180" height="50" viewBox="0,0,180,50"><rect width="100%" height="100%" fill="#f0f0f0"/><path fill="#eaa866" d="M145.67 32.89L145.78 33.00L145.75 32.96Q148.81 32.57 152.01 32.68L152.00 32.67L152.08 32.75Q151.90 30.06 151.90 27.66L152.00 27.75L152.01 27.77Q152.03 25.32 152.22 22.77L152.24 22.79L152.09 22.64Q150.91 24.38 145.69 32.91ZM155.68 40.35L155.66 40.33L155.64 40.30Q153.94 39.98 152.15 39.90L152.22 39.97L152.24 39.99Q151.99 37.57 151.87 35.10L151.79 35.02L151.77 35.00Q146.50 34.86 141.78 36.27L141.86 36.35L141.90 36.39Q141.86 35.74 142.05 34.75L142.22 34.92L142.14 34.84Q143.96 31.71 147.54 25.43L147.41 25.30L147.48 25.38Q150.37 20.50 153.80 16.62L153.77 16.59L153.75 16.56Q154.72 16.47 156.40 16.20L156.36 16.17L156.31 16.12Q154.52 22.66 154.52 29.71L154.45 29.64L154.37 29.56Q154.45 31.12 154.52 32.61L154.57 32.65L155.80 32.70L155.73 32.63Q156.39 32.72 157.00 32.84L156.97 32.81L157.13 32.97Q157.12 33.83 157.38 35.77L157.40 35.78L157.41 35.79Q156.28 35.61 154.79 35.42L154.67 35.30L154.71 35.34Q154.92 37.34 155.60 40.27ZM157.26 32.45L157.29 32.48L157.41 32.60Q157.12 32.43 156.93 32.43L156.97 32.46L156.45 32.32L156.48 32.36Q156.44 30.95 156.44 29.54L156.47 29.56L156.49 29.58Q156.52 23.22 158.57 17.20L158.47 17.10L158.58 17.21Q157.67 17.32 156.22 17.70L156.34 17.82L156.27 17.76Q156.43 16.92 156.89 15.51L156.97 15.60L156.88 15.50Q155.72 16.02 153.66 16.25L153.56 16.15L153.65 16.24Q149.67 20.52 144.46 29.88L144.43 29.86L146.54 26.22L146.62 26.30Q146.20 27.33 145.94 27.90L145.83 27.79L141.48 36.92L141.36 36.80Q142.00 36.65 143.15 36.27L143.24 36.36L143.03 36.53L143.10 36.60Q143.02 37.32 142.72 38.58L142.59 38.45L142.70 38.56Q146.86 37.27 151.69 37.46L151.60 37.37L151.57 37.34Q151.57 38.26 151.76 40.24L151.91 40.38L151.85 40.32Q152.89 40.30 153.96 40.41L153.98 40.44L153.91 40.36Q154.12 41.11 154.38 42.48L154.41 42.50L154.35 42.44Q156.26 42.68 159.27 43.60L159.38 43.70L159.26 43.59Q158.38 41.56 157.47 38.29L157.35 38.17L158.91 38.74L158.84 38.67Q159.57 38.94 160.25 39.29L160.20 39.23L160.30 39.33Q159.38 36.70 159.22 35.02L159.18 34.98L159.24 35.04Q158.64 34.85 157.50 34.63L157.54 34.67L157.55 34.68Q157.31 33.38 157.31 32.50ZM149.34 32.38L149.28 32.31L149.26 32.29Q150.08 31.05 151.64 28.50L151.56 28.43L151.70 28.56Q151.67 29.49 151.63 30.44L151.68 30.49L151.66 30.47Q151.66 31.45 151.70 32.40L151.64 32.34L151.62 32.33Q151.12 32.36 150.55 32.36L150.48 32.29L150.57 32.38Q149.94 32.36 149.33 32.36Z"/><path d="M4 14 C103 9,91 25,175 45" stroke="#d34ad3" fill="none"/><path fill="#7956e0" d="M125.91 40.18L125.85 40.12L123.71 40.26L123.68 40.23Q123.36 40.36 122.39 40.42L122.31 40.35L122.33 40.36Q121.26 40.32 120.76 40.32L120.82 40.38L120.85 40.40Q119.31 40.50 118.28 39.66L118.10 39.48L118.20 39.59Q118.92 38.40 120.55 36.27L120.69 36.40L120.57 36.28Q121.90 37.92 124.11 37.69L124.05 37.63L124.10 37.68Q125.08 37.63 125.72 36.98L125.58 36.84L125.72 36.98Q126.24 36.20 126.12 35.32L126.26 35.47L126.16 35.37Q125.98 30.69 126.06 26.13L126.06 26.13L126.20 26.27Q126.19 21.62 126.73 17.01L126.72 17.00L126.78 17.06Q128.57 16.72 130.70 15.69L130.72 15.71L130.71 15.70Q128.85 22.44 128.85 29.67L128.91 29.74L128.93 29.75Q128.95 33.32 129.41 36.82L129.46 36.88L129.29 36.70Q129.55 37.23 129.55 37.57L129.40 37.42L129.56 37.58Q129.46 38.05 129.23 38.59L129.18 38.53L129.19 38.54Q128.69 39.87 125.88 40.14ZM130.75 42.92L130.87 43.04L131.12 42.95L131.41 42.82L131.65 42.68L131.68 42.71Q131.94 42.40 132.02 42.29L132.15 42.42L132.10 42.36Q132.21 41.11 131.94 40.12L131.88 40.06L131.97 40.15Q130.62 34.34 130.89 27.98L130.83 27.93L130.86 27.95Q131.06 21.80 132.85 15.90L132.93 15.98L132.85 15.90Q132.14 16.71 130.89 17.44L130.82 17.37L130.78 17.33Q130.97 16.57 131.39 15.05L131.36 15.01L131.36 15.02Q128.85 16.35 126.19 16.66L126.31 16.78L126.20 16.67Q125.95 21.18 125.87 26.13L125.79 26.05L125.75 26.01Q125.66 31.90 125.74 35.32L125.79 35.37L125.76 35.34Q125.79 37.08 124.04 37.24L124.14 37.34L124.19 37.39Q122.43 37.45 120.75 35.82L120.77 35.84L120.65 35.72Q118.59 38.22 117.64 39.78L117.64 39.79L117.66 39.80Q118.34 40.49 119.37 40.72L119.34 40.69L119.47 40.82Q119.31 40.88 119.04 41.11L119.07 41.14L119.13 41.20Q120.48 42.05 122.46 42.32L122.51 42.37L122.44 42.31Q122.79 42.31 126.08 42.61L126.16 42.69L126.20 42.73Q129.36 42.90 130.73 42.90Z"/><path d="M18 44 C77 6,78 28,166 8" stroke="#e575ad" fill="none"/><path fill="#59d899" d="M95.54 40.38L95.43 40.26L95.59 40.43Q94.10 40.42 92.54 40.00L92.50 39.96L92.58 40.04Q91.32 39.08 91.16 37.44L91.10 37.38L91.22 37.50Q91.10 37.23 91.29 34.60L91.37 34.68L91.29 34.60Q92.36 34.45 94.38 34.07L94.38 34.08L94.15 34.80L94.11 34.76Q93.88 36.55 95.29 37.12L95.28 37.10L95.30 37.13Q96.09 37.46 98.18 37.46L98.11 37.39L98.22 37.49Q99.80 37.32 99.99 37.25L100.08 37.34L100.09 37.35Q100.86 37.05 101.58 36.56L101.66 36.63L101.58 36.55Q103.07 35.68 102.88 33.59L102.83 33.54L102.80 33.51Q102.60 31.06 100.86 29.50L100.96 29.59L100.98 29.62Q99.11 27.91 96.63 27.91L96.63 27.91L96.81 27.87L96.64 27.70Q97.04 27.67 97.92 27.60L98.00 27.68L97.94 27.62Q99.92 27.58 101.29 26.35L101.31 26.36L101.22 26.28Q102.63 25.08 102.79 23.22L102.73 23.16L102.77 23.20Q102.76 22.77 102.76 22.43L102.82 22.49L102.80 22.47Q102.88 21.03 101.51 20.12L101.45 20.05L101.53 20.13Q100.33 19.35 98.73 19.46L98.61 19.34L98.72 19.46Q97.28 19.15 96.06 19.57L96.20 19.72L96.18 19.70Q94.80 20.29 94.49 21.43L94.34 21.28L94.47 21.41Q94.25 22.14 94.33 22.90L94.37 22.95L94.20 22.78Q93.21 22.59 91.16 21.87L91.14 21.85L91.19 21.90Q91.03 20.29 91.07 19.45L91.02 19.40L90.97 19.36Q91.20 17.95 92.27 17.27L92.20 17.20L92.15 17.15Q93.60 16.58 95.20 16.58L95.29 16.68L95.16 16.55Q98.31 16.50 101.47 16.76L101.51 16.80L101.56 16.86Q106.61 17.26 106.30 21.02L106.34 21.06L106.34 21.06Q106.24 22.52 105.74 24.08L105.75 24.09L105.72 24.06Q104.86 27.19 102.50 28.10L102.52 28.13L102.37 27.98Q104.98 28.49 105.59 31.84L105.67 31.92L105.60 31.85Q105.84 33.01 105.92 35.03L105.93 35.04L106.05 35.16Q106.14 39.55 101.53 40.01L101.55 40.02L101.59 40.06Q100.82 40.09 95.53 40.36ZM100.82 42.68L100.71 42.58L100.82 42.68Q101.30 42.60 104.16 42.67L104.13 42.65L104.27 42.78Q105.91 42.75 107.55 42.11L107.56 42.11L107.58 42.14Q108.75 41.17 108.56 39.42L108.55 39.42L108.58 39.45Q108.45 38.10 108.15 36.35L108.13 36.32L108.13 36.33Q107.51 31.94 105.57 30.30L105.39 30.12L105.20 29.74L105.27 29.77L105.18 29.69Q107.05 28.35 107.81 23.98L107.82 23.98L107.68 23.85Q107.88 23.55 107.99 22.60L107.97 22.58L107.86 22.46Q108.08 21.85 108.01 21.16L107.84 21.00L107.89 21.05Q107.81 19.45 106.51 18.76L106.54 18.79L106.34 18.66L106.37 18.69Q106.03 17.67 104.89 17.14L104.98 17.23L105.02 17.26Q103.45 16.53 98.31 16.23L98.37 16.29L98.28 16.20Q96.54 16.06 94.94 16.06L95.06 16.18L95.08 16.19Q93.39 16.10 91.86 16.75L91.98 16.87L91.80 16.68Q90.69 17.56 90.69 19.31L90.74 19.36L90.61 19.22Q90.70 18.89 90.96 22.24L90.91 22.19L91.03 22.31Q91.31 22.36 92.95 22.97L92.92 22.94L92.92 22.95Q92.86 23.42 92.82 23.91L92.81 23.90L92.79 23.88Q92.85 24.43 92.89 24.97L92.86 24.94L92.86 24.94Q94.73 25.40 96.75 25.52L96.76 25.53L96.73 25.50Q96.52 23.34 97.62 22.51L97.62 22.51L97.65 22.54Q98.60 22.00 100.62 21.77L100.53 21.68L100.49 21.64Q101.64 21.65 102.21 21.84L102.24 21.87L102.31 21.94Q102.39 22.10 102.43 22.21L102.28 22.06L102.32 22.30L102.51 22.94L102.56 22.99Q102.44 23.06 102.40 23.21L102.52 23.33L102.44 23.25Q102.37 24.97 100.84 26.15L100.89 26.19L100.89 26.20Q99.86 26.99 97.84 27.18L97.96 27.30L97.87 27.20Q97.12 27.34 96.25 27.34L96.35 27.44L96.27 27.36Q96.40 27.79 96.55 28.48L96.55 28.48L96.58 28.51Q98.20 28.38 99.65 29.10L99.73 29.19L99.62 29.19L97.99 29.31L98.02 29.34Q98.08 29.70 98.19 30.31L98.14 30.25L98.27 30.39Q100.25 30.16 101.97 31.49L101.99 31.52L102.06 31.59Q102.25 31.93 102.56 33.57L102.64 33.65L102.56 33.57Q102.75 36.51 99.82 36.92L99.91 37.01L99.78 36.88Q97.80 37.26 97.22 37.22L97.18 37.18L97.13 37.13Q96.70 37.04 96.17 36.97L96.23 37.03L96.09 36.43L96.35 36.12L96.22 35.57L96.39 35.39L96.40 35.40Q95.31 35.35 94.51 35.54L94.56 35.58L94.53 35.56Q94.53 35.36 94.53 35.17L94.56 35.20L94.54 35.18Q94.58 34.99 94.58 34.77L94.59 34.78L94.56 34.75Q94.68 34.41 94.84 33.69L94.81 33.67L94.79 33.64Q92.83 33.78 90.96 34.12L91.01 34.17L91.05 34.21Q91.08 34.73 90.97 35.86L90.91 35.80L90.95 35.84Q90.91 37.04 90.91 37.65L90.89 37.62L90.82 37.56Q90.90 39.61 92.27 40.37L92.26 40.36L92.18 40.29Q93.82 42.73 98.54 42.54L98.40 42.39L98.47 42.46Q99.23 42.47 100.76 42.62Z"/><path fill="#e9c148" d="M30.49 37.96L30.47 37.94L30.49 37.96Q30.82 38.97 31.35 40.99L31.24 40.88L31.26 40.91Q27.06 39.59 22.45 39.86L22.50 39.91L22.38 39.79Q17.83 40.07 13.83 42.05L13.93 42.14L13.95 42.17Q14.11 41.41 14.14 41.49L14.23 41.57L14.15 41.49Q17.78 37.44 21.70 33.02L21.85 33.17L21.71 33.02Q26.27 28.18 27.45 23.50L27.31 23.36L27.37 23.42Q27.85 21.70 26.58 20.52L26.51 20.44L26.64 20.57Q25.27 19.30 23.48 19.45L23.49 19.46L23.60 19.57Q23.21 19.49 22.87 19.49L22.88 19.50L22.83 19.45Q21.28 19.43 20.03 20.34L20.07 20.38L20.12 20.44Q18.79 21.77 19.02 24.44L18.90 24.32L18.94 24.35Q17.09 23.96 15.88 23.50L15.99 23.61L15.88 23.50Q15.68 22.09 15.61 20.64L15.76 20.79L15.69 20.73Q15.61 19.08 16.21 17.94L16.22 17.95L16.31 18.03Q18.00 16.56 21.35 16.56L21.47 16.68L23.22 16.68L23.19 16.65Q25.49 16.70 26.44 16.82L26.33 16.71L26.28 16.66Q30.69 17.15 30.96 19.59L31.06 19.68L30.97 19.59Q31.06 20.18 30.99 20.98L30.91 20.91L31.00 21.00Q31.01 21.69 30.85 22.37L30.72 22.24L30.76 22.28Q29.19 30.46 21.62 37.31L21.58 37.28L21.51 37.20Q23.03 37.17 24.40 37.17L24.30 37.06L24.25 37.01Q27.67 37.19 30.52 37.99ZM29.77 16.99L29.83 17.05L29.88 17.10Q28.34 16.51 26.63 16.43L26.60 16.41L23.06 16.10L23.21 16.25Q18.75 15.98 16.54 17.08L16.40 16.94L16.56 17.10Q15.34 18.32 15.34 20.37L15.46 20.49L15.45 20.48Q15.36 21.08 15.67 23.90L15.73 23.96L15.81 24.04Q16.30 24.22 17.48 24.53L17.42 24.47L17.53 25.61L17.46 25.54Q17.44 26.02 17.52 26.55L17.45 26.48L17.41 26.44Q18.81 26.70 21.28 26.93L21.26 26.90L21.31 26.95Q21.25 26.55 21.25 26.21L21.26 26.22L21.13 26.09Q21.11 24.24 22.32 22.89L22.45 23.01L22.36 22.93Q23.56 21.56 25.35 21.67L25.48 21.80L25.40 21.72Q26.21 21.80 26.97 21.95L26.97 21.95L26.98 21.96Q26.95 22.20 27.03 22.62L27.04 22.64L27.19 22.78Q27.24 23.22 27.17 23.56L27.15 23.55L26.99 23.38Q25.88 28.29 21.47 33.13L21.31 32.97L21.50 33.16Q19.35 35.39 13.91 41.44L13.77 41.30L13.84 41.38Q13.61 42.18 13.27 42.75L13.40 42.88L13.30 42.78Q14.84 41.84 16.37 41.31L16.51 41.45L16.40 41.35Q15.61 41.84 14.65 43.33L14.85 43.52L14.74 43.42Q14.64 43.77 14.52 44.11L14.60 44.19L14.58 44.17Q19.48 42.14 24.96 42.33L24.90 42.27L24.90 42.27Q30.62 42.46 35.18 44.82L35.14 44.78L34.23 42.72L34.06 42.56Q33.39 41.20 33.12 40.40L33.27 40.55L33.17 40.45Q32.44 40.02 31.22 39.60L31.30 39.68L31.37 39.75Q31.05 38.87 30.67 37.50L30.80 37.62L30.83 37.65Q28.50 36.96 26.21 36.77L26.25 36.80L26.16 36.71Q30.83 32.14 32.36 23.88L32.41 23.93L32.65 21.09L32.61 21.04Q32.60 19.32 31.38 18.64L31.43 18.69L31.28 18.58L31.39 18.69Q31.20 18.46 31.12 18.46L31.16 18.49L31.21 18.54Q30.94 17.66 29.84 17.05Z"/><path fill="#e66464" d="M47.79 29.04L47.94 29.18L47.81 29.05Q46.06 29.01 44.82 30.44L44.73 30.35L44.88 30.50Q43.54 31.82 43.35 33.73L43.41 33.79L43.36 33.74Q43.23 35.90 44.32 36.87L44.25 36.80L44.32 36.87Q45.28 37.71 47.37 37.60L47.46 37.68L47.46 37.69Q49.51 37.49 50.61 36.80L50.62 36.81L50.63 36.83Q51.69 35.64 51.69 34.07L51.72 34.10L51.68 34.07Q51.82 33.82 51.74 33.44L51.59 33.29L51.60 33.30Q51.71 31.65 50.60 30.30L50.65 30.35L50.74 30.44Q49.58 29.03 47.90 29.15ZM47.42 40.20L47.41 40.19L47.42 40.20Q43.14 40.30 41.73 39.53L41.64 39.45L41.69 39.49Q40.67 38.73 40.47 37.02L40.44 36.98L40.51 37.06Q40.33 36.23 40.37 35.51L40.45 35.58L40.46 35.60Q40.53 34.56 40.53 34.10L40.55 34.13L40.57 34.15Q40.97 31.24 41.13 30.55L41.23 30.66L41.20 30.62Q41.57 28.60 42.41 27.19L42.53 27.31L42.50 27.29Q45.10 22.84 51.04 16.48L51.16 16.61L50.98 16.42Q53.77 16.24 55.98 15.45L56.01 15.48L55.91 15.38Q49.09 22.88 45.90 27.10L45.98 27.19L45.86 27.06Q46.91 26.63 48.21 26.63L48.13 26.55L48.23 26.65Q51.41 26.52 52.93 28.46L53.07 28.60L52.97 28.50Q54.31 30.14 54.65 33.69L54.61 33.65L54.69 33.73Q54.75 34.44 54.75 35.04L54.81 35.10L54.66 34.96Q54.77 38.18 52.56 39.25L52.49 39.18L52.57 39.25Q51.43 39.94 47.55 40.32ZM49.63 42.53L49.81 42.70L49.80 42.69Q51.12 42.68 53.10 42.76L52.98 42.64L53.03 42.68Q54.70 42.80 56.26 42.07L56.11 41.93L56.28 42.09Q57.39 41.30 57.39 39.51L57.41 39.53L57.41 39.53Q57.41 39.03 57.24 38.04L57.08 37.88L57.12 37.92Q57.02 37.01 57.02 36.55L57.01 36.54L57.02 36.55Q56.01 31.70 54.41 29.79L54.48 29.86L54.58 29.96Q54.44 29.79 54.29 29.56L54.35 29.61L53.98 29.32L53.90 29.28L53.80 29.18Q53.57 28.80 52.96 27.85L52.97 27.85L52.83 27.72Q52.02 26.87 50.04 26.41L50.04 26.41L49.94 26.31Q51.33 24.88 54.30 21.19L54.29 21.19L58.41 15.79L58.53 15.90Q56.81 16.62 54.41 17.38L54.50 17.47L54.40 17.37Q55.48 16.55 57.27 14.57L57.23 14.53L57.19 14.49Q54.88 15.64 50.99 16.21L50.93 16.15L50.91 16.12Q45.16 21.98 42.19 26.93L42.33 27.07L42.24 26.99Q40.67 29.45 40.10 35.70L40.07 35.67L40.24 35.83Q39.99 36.24 40.07 37.19L40.23 37.35L40.19 37.30Q40.14 38.93 41.24 39.85L41.24 39.84L41.32 39.92Q41.80 40.17 41.76 40.21L41.71 40.16L41.70 40.15Q41.97 40.95 42.76 41.37L42.74 41.35L42.83 41.44Q44.19 42.03 46.13 42.22L46.27 42.36L46.18 42.27Q46.28 42.37 49.79 42.68ZM49.60 31.49L49.43 31.32L49.49 31.38Q50.00 31.21 50.95 31.70L50.94 31.69L51.12 31.86Q51.32 32.68 51.32 33.32L51.28 33.29L51.47 33.47Q51.65 35.33 50.70 36.32L50.66 36.28L50.67 36.29Q49.48 36.89 47.39 37.20L47.37 37.17L47.43 37.24Q45.96 37.21 45.42 36.94L45.41 36.93L45.55 37.07Q45.19 36.45 45.19 36.14L45.32 36.27L45.22 36.18Q45.04 32.95 47.97 31.65L48.00 31.68L48.02 31.69Q48.66 31.24 49.42 31.31Z"/><path fill="#70dbc0" d="M77.66 30.89L77.76 30.99L77.68 30.90Q77.68 29.38 76.86 28.47L76.88 28.49L77.02 28.63Q76.16 27.67 74.71 27.71L74.59 27.59L74.69 27.69Q72.41 27.80 71.57 29.94L71.46 29.83L71.53 29.90Q71.16 30.59 71.12 31.27L71.14 31.30L71.16 31.31Q71.06 36.28 70.15 40.62L70.00 40.47L69.99 40.47Q68.47 41.15 66.60 42.14L66.50 42.04L66.42 41.96Q68.82 35.10 68.55 27.79L68.54 27.78L68.45 27.69Q68.29 20.45 65.74 13.63L65.65 13.55L65.72 13.62Q67.49 14.93 69.51 15.61L69.50 15.60L69.43 15.53Q70.88 21.33 71.07 27.19L71.10 27.22L71.15 27.27Q72.51 25.16 75.21 25.24L75.31 25.34L75.33 25.36Q80.34 25.38 80.45 30.75L80.42 30.72L80.33 30.63Q80.50 36.35 81.87 41.00L81.85 40.98L81.88 41.00Q80.17 40.33 78.42 40.14L78.27 39.99L78.26 39.97Q77.70 36.67 77.59 30.81ZM77.97 40.33L77.89 40.25L78.03 40.39Q79.08 40.52 80.18 40.79L80.17 40.78L80.07 40.69Q80.21 40.93 80.74 42.91L80.79 42.96L80.64 42.81Q83.64 43.80 85.66 45.24L85.66 45.24L85.67 45.25Q83.08 39.58 82.55 33.26L82.55 33.27L82.46 33.17Q82.11 29.43 80.70 27.87L80.81 27.99L80.77 27.94Q80.66 27.76 80.01 27.30L80.05 27.34L80.03 27.32Q79.85 26.87 79.20 26.11L79.21 26.11L79.20 26.03L79.26 26.09Q78.35 25.18 75.23 24.92L75.18 24.86L75.26 24.94Q74.50 24.91 73.09 25.25L73.15 25.31L73.09 25.25Q72.94 20.45 72.59 17.94L72.59 17.94L72.63 17.98Q71.77 17.77 70.29 17.46L70.29 17.47L70.36 17.53Q70.14 16.75 69.88 15.26L69.93 15.32L69.94 15.32Q66.94 14.31 65.08 12.75L64.98 12.65L65.10 12.76Q67.92 19.77 68.18 27.57L68.33 27.72L68.17 27.57Q68.61 35.50 66.06 42.85L66.05 42.84L65.93 42.72Q66.94 42.21 68.09 41.72L68.09 41.72L67.33 43.97L67.32 43.96Q70.45 42.63 72.42 42.44L72.35 42.36L72.34 42.35Q72.92 36.96 73.11 33.00L73.28 33.17L73.15 33.04Q73.32 31.27 75.26 30.16L75.20 30.10L75.32 30.22Q75.70 29.84 76.24 29.88L76.28 29.93L76.27 29.92Q76.49 29.98 76.83 30.02L76.81 30.00L77.14 29.98L77.24 30.08Q77.18 30.40 77.29 30.86L77.29 30.86L77.40 30.97Q77.56 36.99 78.05 40.42Z"/></svg>