<?xml version="1.0" encoding="UTF-8"?>
<svg width="71px" height="55px" viewBox="0 0 71 55" version="1.1" xmlns="http://www.w3.org/2000/svg" xmlns:xlink="http://www.w3.org/1999/xlink">
    <title>Discord Logo</title>
    <g id="Page-1" stroke="none" stroke-width="1" fill="none" fill-rule="evenodd">
        <g id="discord" fill="#5865F2" fill-rule="nonzero">
            <path d="M60.1045,4.8978 C55.5792,2.8214 50.7265,1.2916 45.6527,0.41542 C45.5603,0.39851 45.468,0.440769 45.4204,0.525289 C44.7963,1.6353 44.105,3.0834 43.6209,4.2216 C38.1637,3.4046 32.7345,3.4046 27.3892,4.2216 C26.905,3.0581 26.1886,1.6353 25.5617,0.525289 C25.5141,0.443589 25.4218,0.40133 25.3294,0.41542 C20.2584,1.2888 15.4057,2.8186 10.8776,4.8978 C10.8384,4.9147 10.8048,4.9429 10.7825,4.9795 C1.57795,18.7309 -0.943561,32.1443 0.293408,45.3914 C0.299005,45.4562 0.335386,45.5182 0.385761,45.5576 C6.45866,50.0174 12.3413,52.7249 18.1147,54.5195 C18.2071,54.5477 18.305,54.5139 18.3638,54.4378 C19.7295,52.5728 20.9469,50.6063 21.9907,48.5383 C22.0523,48.4172 21.9935,48.2735 21.8676,48.2256 C19.9366,47.4931 18.0979,46.6 16.3292,45.5858 C16.1893,45.5041 16.1781,45.304 16.3068,45.2082 C16.679,44.9293 17.0513,44.6391 17.4067,44.3461 C17.471,44.2926 17.5606,44.2813 17.6362,44.3151 C29.2558,49.6202 41.8354,49.6202 53.3179,44.3151 C53.3935,44.2785 53.4831,44.2898 53.5502,44.3433 C53.9057,44.6363 54.2779,44.9293 54.6529,45.2082 C54.7816,45.304 54.7732,45.5041 54.6333,45.5858 C52.8646,46.6197 51.0259,47.4931 49.0921,48.2228 C48.9662,48.2707 48.9102,48.4172 48.9718,48.5383 C50.038,50.6034 51.2554,52.5699 52.5959,54.435 C52.6519,54.5139 52.7526,54.5477 52.845,54.5195 C58.6464,52.7249 64.529,50.0174 70.6019,45.5576 C70.6551,45.5182 70.6887,45.459 70.6943,45.3942 C72.1747,30.0791 68.2147,16.7757 60.1968,4.9823 C60.1772,4.9429 60.1437,4.9147 60.1045,4.8978 Z M23.7259,37.3253 C20.2276,37.3253 17.3451,34.1136 17.3451,30.1693 C17.3451,26.225 20.1717,23.0133 23.7259,23.0133 C27.308,23.0133 30.1626,26.2532 30.1066,30.1693 C30.1066,34.1136 27.28,37.3253 23.7259,37.3253 Z M47.3178,37.3253 C43.8196,37.3253 40.9371,34.1136 40.9371,30.1693 C40.9371,26.225 43.7636,23.0133 47.3178,23.0133 C50.9,23.0133 53.7545,26.2532 53.6986,30.1693 C53.6986,34.1136 50.9,37.3253 47.3178,37.3253 Z" id="Shape"></path>
        </g>
    </g>
</svg>