<svg xmlns="http://www.w3.org/2000/svg" height="24" width="24" viewBox="0 0 24 24"><title>world</title><g fill="#212121" class="nc-icon-wrapper"><path d="M12,0A12,12,0,1,0,24,12,12.013,12.013,0,0,0,12,0Zm0,22a9.965,9.965,0,0,1-7.132-3l1.455-1.222a1,1,0,0,0,.318-1.04l-.7-2.472a1.015,1.015,0,0,0-.231-.409L4.474,12.536l-.187-.319.64-.547,2.487-1.258a1,1,0,0,0,.538-.746l.4-2.74A1,1,0,0,0,8.1,6.1L6.451,4.34a.877.877,0,0,0-.094-.089L6.039,3.99a9.929,9.929,0,0,1,5.54-1.969l.448.745.586,1.713a1.012,1.012,0,0,0,.319.455l2.284,1.837a1,1,0,0,0,.627.221.934.934,0,0,0,.118-.007l3-.356a1.011,1.011,0,0,0,.375-.123l.718-.408A9.981,9.981,0,0,1,12,22Z" fill="#212121"></path><path data-color="color-2" d="M19.894,12.441l-1.135-2.178a1,1,0,0,0-.655-.511l-2.357-.564a.994.994,0,0,0-.564.03L12.956,10a1,1,0,0,0-.451.319l-1.338,1.973a1.25,1.25,0,0,0-.073.927l.812,2.062L11.406,17a.985.985,0,0,0,.188.844l.657,1.735a1,1,0,0,0,.772.364l.064,0,2.339-.15a1,1,0,0,0,.618-.267l1.762-1.641a1,1,0,0,0,.233-.325l1.882-4.25A1,1,0,0,0,19.894,12.441Z"></path></g></svg>